<?xml version="1.0" standalone="no"?>
<!DOCTYPE svg PUBLIC "-//W3C//DTD SVG 20010904//EN"
 "http://www.w3.org/TR/2001/REC-SVG-20010904/DTD/svg10.dtd">
<svg version="1.0" xmlns="http://www.w3.org/2000/svg"
 width="700.000000pt" height="700.000000pt" viewBox="0 0 700.000000 700.000000"
 preserveAspectRatio="xMidYMid meet">
<metadata>
Created by potrace 1.14, written by Peter Selinger 2001-2017
</metadata>
<g transform="translate(0.000000,700.000000) scale(0.100000,-0.100000)"
fill="#000000" stroke="none">
<path d="M0 3500 l0 -3500 3500 0 3500 0 0 3500 0 3500 -3500 0 -3500 0 0
-3500z m6710 0 l0 -3210 -3210 0 -3210 0 0 3210 0 3210 3210 0 3210 0 0 -3210z"/>
<path d="M800 3500 l0 -2710 293 2 292 3 3 1228 2 1227 114 0 114 0 30 -77
c16 -43 219 -594 452 -1225 l424 -1148 314 0 c294 0 314 1 310 18 -3 9 -236
634 -518 1387 -282 754 -513 1375 -513 1380 0 6 216 597 481 1315 l480 1305
-306 3 c-168 1 -309 -1 -313 -5 -4 -5 -193 -537 -419 -1183 -227 -646 -417
-1187 -422 -1202 l-10 -28 -109 0 -109 0 -2 1208 -3 1207 -292 3 -293 2 0
-2710z"/>
<path d="M3540 3505 l0 -2705 275 0 275 0 -1 1873 c0 1029 -4 2034 -8 2232 -7
330 -4 391 16 372 4 -4 127 -674 275 -1490 147 -815 270 -1492 273 -1504 l5
-23 223 0 223 0 268 1503 c147 826 272 1506 277 1511 5 5 12 7 15 3 4 -4 2
-303 -5 -664 -6 -362 -11 -1368 -11 -2235 l0 -1578 280 0 280 0 0 2705 0 2705
-385 0 c-299 0 -387 -3 -390 -12 -3 -7 -119 -652 -260 -1433 -140 -781 -257
-1430 -260 -1442 -3 -13 -12 -23 -19 -23 -10 0 -19 28 -30 88 -12 66 -416
2403 -477 2760 l-11 62 -414 0 -414 0 0 -2705z"/>
</g>
</svg>
