<?xml version="1.0" standalone="no"?>
<!DOCTYPE svg PUBLIC "-//W3C//DTD SVG 20010904//EN"
 "http://www.w3.org/TR/2001/REC-SVG-20010904/DTD/svg10.dtd">
<svg version="1.0" xmlns="http://www.w3.org/2000/svg"
 width="700.000000pt" height="700.000000pt" viewBox="0 0 700.000000 700.000000"
 preserveAspectRatio="xMidYMid meet">
<metadata>
Created by potrace 1.14, written by Peter Selinger 2001-2017
</metadata>
<g transform="translate(0.000000,700.000000) scale(0.100000,-0.100000)"
fill="#000000" stroke="none">
<path d="M3275 6699 c-596 -46 -1169 -272 -1644 -650 l-74 -59 -633 0 -634 0
0 -30 0 -30 133 0 c206 0 550 -19 632 -35 93 -18 159 -46 179 -77 9 -13 19
-45 22 -71 6 -45 5 -48 -48 -109 -281 -323 -518 -758 -647 -1188 -66 -220
-131 -567 -131 -701 l0 -39 -70 0 -70 0 0 -30 0 -30 65 0 65 0 0 -125 0 -125
-65 0 -65 0 0 -30 0 -30 70 0 70 0 0 -48 c0 -73 27 -283 55 -424 88 -443 248
-829 497 -1203 l100 -150 -4 -125 c-5 -177 -28 -210 -167 -239 -74 -16 -306
-31 -478 -31 l-143 0 0 -30 0 -30 609 0 610 0 48 -42 c243 -211 618 -428 938
-543 709 -255 1493 -228 2184 77 247 108 486 254 697 423 l105 85 604 0 605 0
0 28 0 29 -232 6 c-366 11 -491 39 -530 117 -14 28 -18 61 -18 160 l0 124 79
116 c313 459 496 962 556 1527 8 76 15 146 15 156 0 14 10 17 65 17 l65 0 0
30 0 30 -65 0 -65 0 0 115 c0 63 0 118 0 123 0 4 29 8 65 10 65 3 65 3 65 32
l0 30 -68 0 -67 0 -17 158 c-80 724 -401 1406 -905 1921 -62 63 -111 117 -109
119 2 2 130 8 285 15 l281 11 0 28 0 28 -333 0 -334 0 -84 67 c-427 338 -948
557 -1489 627 -151 20 -425 27 -575 15z m410 -100 c525 -39 1008 -221 1443
-543 l83 -61 -483 -5 -483 -5 -3 -31 -3 -32 263 -4 c145 -3 271 -8 281 -13 25
-10 21 -22 -12 -39 -16 -9 -604 -236 -1307 -507 -704 -270 -1282 -494 -1286
-498 -4 -4 583 -231 1305 -506 1668 -634 1584 -601 1563 -622 -12 -13 -152
-22 -348 -22 l-188 -1 0 -30 0 -30 929 0 929 0 7 -114 c4 -63 4 -119 1 -125
-5 -8 -166 -11 -540 -11 l-532 0 -300 -339 c-164 -186 -571 -647 -904 -1024
-333 -377 -610 -686 -616 -686 -6 -1 -410 460 -899 1024 l-888 1025 -539 0
-538 0 0 125 0 125 1085 0 1085 0 0 30 0 30 -157 0 c-87 0 -237 5 -334 10
-279 15 -383 36 -435 91 l-29 30 -3 962 c-2 1077 -7 1010 69 1049 86 44 323
68 682 68 l207 0 0 35 0 35 -507 0 -508 1 35 29 c59 51 259 183 370 245 450
252 993 373 1505 334z m1781 -842 c377 -390 638 -842 784 -1356 58 -207 86
-358 115 -635 l7 -59 -114 7 c-233 14 -399 42 -563 93 -66 21 -780 296 -2708
1045 -114 45 -206 82 -204 84 1 2 293 116 647 254 1735 677 1626 635 1765 669
144 35 136 38 271 -102z m-4218 -1339 l-3 -576 -25 -27 c-35 -38 -64 -51 -150
-69 -80 -16 -438 -42 -448 -32 -9 10 17 236 44 386 84 458 263 896 519 1263
l60 86 3 -227 c1 -125 1 -487 0 -804z m5122 -1085 c0 -5 -5 -60 -10 -123 -41
-450 -174 -893 -383 -1279 l-62 -115 -3 684 c-2 634 -1 686 15 719 32 64 113
95 291 111 123 10 152 11 152 3z m-5490 -24 c79 -12 147 -44 174 -82 21 -28
21 -40 23 -720 l3 -692 -25 40 c-86 136 -215 426 -279 623 -83 257 -156 640
-156 818 l0 37 98 -7 c53 -4 126 -11 162 -17z m4568 -1056 c-3 -1116 4 -1025
-91 -1068 -76 -34 -183 -47 -457 -54 l-245 -6 0 -30 0 -30 303 -5 303 -5 -73
-58 c-119 -95 -324 -227 -464 -299 -903 -465 -1986 -379 -2823 223 -53 38
-114 85 -136 104 l-40 34 193 1 192 0 0 30 0 30 -133 0 c-74 0 -182 3 -241 7
l-107 6 -96 96 c-53 53 -120 125 -149 161 l-53 65 -7 878 c-6 752 -5 877 7
872 8 -4 433 -493 944 -1088 l931 -1082 129 -21 c102 -17 132 -20 140 -10 123
151 1952 2226 1962 2226 12 0 13 -141 11 -977z"/>
</g>
</svg>
