<svg fill="none" height="30" viewBox="0 0 30 30" width="30" xmlns="http://www.w3.org/2000/svg"><g fill="#000"><path d="m.070068.070068h4.26571v2.986h-4.26571z"/><path d="m8.60156 9.02808h4.26571v2.986h-4.26571z"/><path d="m17.1328 17.9861h4.26571v2.986h-4.26571z"/><path d="m25.6643 26.9441h4.26571v2.986h-4.26571z"/><path d="m4.33569 3.05615h4.26571v2.986h-4.26571z"/><path d="m4.33569 6.04199h4.26571v2.986h-4.26571z"/><path d="m12.8672 12.0142h4.26571v2.986h-4.26571z"/><path d="m21.3984 20.9722h4.26571v2.986h-4.26571z"/><path d="m12.8672 15h4.26571v2.986h-4.26571z"/><path d="m21.3984 23.958h4.26571v2.986h-4.26571z"/><path d="m25.6643.070068h4.26571v2.986h-4.26571z"/><path d="m17.1328 9.02808h4.26571v2.986h-4.26571z"/><path d="m8.60156 17.9861h4.26571v2.986h-4.26571z"/><path d="m.070068 26.9441h4.26571v2.986h-4.26571z"/><path d="m21.3984 3.05615h4.26571v2.986h-4.26571z"/><path d="m21.3984 6.04199h4.26571v2.986h-4.26571z"/><path d="m12.8672 12.0142h4.26571v2.986h-4.26571z"/><path d="m4.33569 20.9722h4.26571v2.986h-4.26571z"/><path d="m12.8672 15h4.26571v2.986h-4.26571z"/><path d="m4.33569 23.958h4.26571v2.986h-4.26571z"/></g></svg>