<svg fill="none" height="125" viewBox="0 0 166 125" width="166" xmlns="http://www.w3.org/2000/svg" xmlns:xlink="http://www.w3.org/1999/xlink"><clipPath id="a"><path d="m10.1221 10.5693h145.756v104.256h-145.756z"/></clipPath><path d="m1 1.44727h164v122.5h-164z" fill="#d9d9d9" fill-opacity=".5" stroke="#000" stroke-width="2"/><g clip-path="url(#a)" fill="#000"><path d="m26.7899 10.5693c9.1326 0 14.502 12.1127 14.502 35.8781l-13.7011 4.1393c.2411-11.958 0-15.1774-.8827-15.1774-1.1239 0-1.2014 5.5191-1.2014 27.1355s.1594 27.4448 1.2832 27.4448c.9602 0 1.1238-3.3742.8827-15.7921l13.7011 4.1393c0 23.9162-5.3694 36.4882-14.4245 36.4882-10.0971 0-16.8271-15.0224-16.8271-52.2802 0-37.2579 6.6525-51.9755 16.6678-51.9755z"/><path d="m57.8005 11.4893v79.4202h8.4136v22.9965h-23.2385v-102.4167z"/><path d="m99.545 62.6994c0 35.8781-6.0109 52.1306-16.586 52.1306-10.575 0-16.586-16.2525-16.586-52.1306s6.011-52.1301 16.586-52.1301c10.5751 0 16.586 16.4067 16.586 52.1301zm-16.586-28.9792c-1.2013 0-1.2013 4.7539-1.2013 28.9792 0 24.2254 0 28.9793 1.2013 28.9793 1.2014 0 1.2014-4.7539 1.2014-28.9793 0-24.2253 0-28.9792-1.2014-28.9792z"/><path d="m100.269 83.2413 12.258-4.9045c-.318 8.7386.642 13.9524 2.003 13.9524.96 0 1.36-1.5345 1.36-3.2195 0-13.7977-15.384-23.4561-15.384-48.7559.004-17.1719 5.692-29.7445 15.466-29.7445s14.261 12.1127 13.942 30.819l-12.022 4.1393c.16-7.5135-.4-12.7273-1.761-12.7273-.801 0-1.36 1.3798-1.36 3.6794 0 11.4981 15.466 22.5363 15.466 49.5212 0 17.0171-6.252 28.8241-15.225 28.8241s-15.2255-12.877-14.743-31.5837z"/><path d="m155.796 113.906h-24.121v-102.4167h24.199v22.9961h-9.537v16.4067h8.013v22.3856h-8.013v17.6318h9.455v22.9965z"/></g></svg>