<svg fill="none" viewBox="0 0 267 606" xmlns="http://www.w3.org/2000/svg" xmlns:xlink="http://www.w3.org/1999/xlink"><mask id="a" fill="#000" maskUnits="userSpaceOnUse" x="0" y="0"><path d="m0 0h267v606h-267z" fill="#fff"/><path d="m165.859 171.521v-.923c8.718-3.698 14.92-24.356 14.92-56.734 0-43.4785-8.629-62.5942-20.223-62.5942h-23.187v6.4728c8.629 0 9.348 4.3176 9.348 23.1234v187.466c0 18.413-.691 22.938-8.812 23.117l4.137-58.883-1.887-1.543c-3.505 50.565-5.122 56.425-10.606 56.425h-16.357c-3.864 0-4.673-3.085-4.673-18.503v-188.079c0-18.8058.719-23.1234 9.348-23.1234v-6.4728h-24.2675v6.4728c8.6295 0 9.3475 4.3176 9.3475 23.1234v187.466c0 18.117-.668 22.786-8.4322 23.11-4.6367-.207-7.1417-2.383-10.4436-16.32l-26.694-112.546 20.9413-88.4927c3.5046-14.7982 6.0217-16.3407 11.2344-16.3407v-6.4728h-17.9746v6.4728c7.2802 0 6.2906 1.5425 2.786 16.3407l-22.9184 96.1987 25.3451 104.833c3.5046 14.798 4.5845 16.341-2.6074 16.341v6.472h85.4734c12.762 0 24.267-15.727 24.267-65.369 0-33.914-7.37-58.587-18.065-61.052zm-13.57-106.6857c2.517-2.4652 4.853-3.085 7.639-3.085 7.371 0 15.01 14.1853 15.01 50.8747 0 36.688-7.639 53.649-15.01 53.649-2.786 0-5.122-.31-7.639-1.543zm6.92 222.6197c-1.977 0-4.403-.923-6.92-3.085v-106.066c2.517-1.233 4.853-1.543 7.639-1.543 6.65 0 18.155 11.411 18.155 55.812s-9.885 54.882-18.874 54.882zm95.347-102.368c-6.66-35.842-16.18-67.993-28.295-95.5652-.169-.3787-.338-.7574-.506-1.1362-2.601-24.597-9.548-37.1158-19.271-37.1158h-.787c-6.674-10.033-13.75-18.6681-21.182-25.8228-16.161-15.56246-33.324-23.447-51.012-23.447s-34.8493 7.88454-51.0095 23.4401c-8.8438 8.5112-17.1777 19.1089-24.9357 31.6828v-5.86h-24.2672v6.4729c8.629 0 9.3476 4.3175 9.3476 23.1234v4.4346c-.6363 1.391-1.2666 2.7957-1.8928 4.2142-12.1136 27.572-21.6339 59.723-28.2958 95.565-6.93295 37.322-10.4496 76.993-10.4496 117.924 0 40.93 3.51665 80.608 10.4496 117.916 6.5455 35.223 15.853 66.878 27.6695 94.126v18.489c0 18.806-.7186 23.123-9.3476 23.123v6.473h21.7502v-6.782c-8.629.309-9.3476-4.008-9.3476-22.814l-.01-11.679c6.668 14.433 13.906 27.118 21.6518 37.977l1.0077 10.398h2.6957l.4717-4.786c4.3536 5.605 8.8558 10.653 13.4985 15.122 16.1601 15.555 33.3215 23.44 51.0095 23.44s34.851-7.885 51.009-23.44c5.273-5.075 10.364-10.894 15.259-17.429h10.845v-6.473c-2.346 0-4.106-.323-5.427-1.163 4.956-7.375 9.693-15.529 14.195-24.425l2.017 13.558c2.427 17.574 3.595 18.503 7.999 18.503h6.831v-6.473c-5.213 0-7.281-2.775-9.798-19.735l-2.322-15.666c.723-1.57 1.439-3.161 2.148-4.779 12.115-27.572 21.633-59.723 28.295-95.565 6.935-37.308 10.45-76.986 10.45-117.916 0-40.931-3.517-80.609-10.45-117.917zm-33.512-73.075c0 47.176-12.493 54.579-19.773 54.269h-2.608v-98.9805c1.58-2.9817 3.925-5.0062 6.606-5.4538 5.024 7.678 9.795 16.141 14.282 25.3063.959 6.8998 1.493 15.184 1.493 24.859zm-163.8655-54.2694c-3.059 4.9993-6.0297 10.3016-8.9041 15.9069.2971-12.5189 1.8346-15.7967 8.9041-15.9069zm-14.0245 451.9044-.1585-172.227h.2689l20.299 209.467c-7.3564-10.839-14.195-23.33-20.4094-37.24zm90.349 84.162c-23.101 0-44.7971-13.862-63.5506-38.101l21.8466-221.373h.269v199.186c0 18.806-.8089 23.124-9.438 23.124v6.472h59.769l.181-3.505v3.505h48.36c-17.297 19.626-36.807 30.685-57.437 30.685zm-25.167-224.94c.36-38.232 1.618-41.937 7.1-41.937h21.301l-33.38 229.334c-5.2353-1.384-5.8073-6.955-5.8073-22.745v-187.459c0-18.744.8049-23.096 9.2573-23.123l-.45 45.634 1.977.309zm35.37-45.917c7.565.393 8.221 5.144 8.221 23.096v187.466c0 18.703-.712 23.075-9.203 23.124l2.551-56.425-1.886-.922c-2.158 48.099-3.595 53.339-9.077 53.339h-23.818l33.214-229.685zm58.239 226.097c-.574-3.512-.674-8.511-.674-15.535v-91.577h4.853l11.899 79.967c-5.03 9.958-10.405 19.034-16.078 27.145zm-.674-117.593v-98.973c1.798-3.395 4.584-5.551 7.73-5.551 8.358 0 14.65 16.961 14.65 50.262 0 47.176-12.493 54.579-19.773 54.269h-2.607zm21.481 80.615-6.742-45.462c-1.887-13.255-4.223-21.278-6.381-24.665v-.923h-.09c9.526-3.395 19.953-16.961 19.953-63.517 0-40.394-7.908-61.052-20.401-61.052h-22.74v6.473c8.629 0 9.348 4.317 9.348 23.123v187.466c0 18.414-.691 22.938-8.812 23.117l4.137-58.883-1.887-1.542c-3.504 50.564-5.122 56.424-10.606 56.424h-16.357c-3.864 0-4.673-3.085-4.673-18.503v-188.065c0-18.806.719-23.123 9.348-23.123v-6.473h-59.95-16.5372l-21.4812 216.146h-.269l-21.122-216.146h-16.7181v6.473c8.629 0 9.3476 4.317 9.3476 23.123v156.568c-21.7783-52.127-35.15042-122.413-35.15042-199.633 0-77.221 14.40582-152.837 37.66952-205.4942v170.8292c0 18.806-.7186 23.124-9.3476 23.124v6.472h24.2672v-6.472c-8.629 0-9.3476-4.318-9.3476-23.124v-182.7146c22.7077-45.6614 52.5948-73.4329 85.2928-73.4329 23.412 0 45.379 14.2404 64.305 39.0853h-14.064v6.4728c8.629 0 9.347 4.3176 9.347 23.1234v187.466c0 18.806-.718 23.124-9.347 23.124v6.472h24.267v-6.472c-8.629 0-9.348-4.318-9.348-23.124v-91.571h4.854l15.279 102.678c2.427 17.574 3.595 18.503 7.999 18.503h6.83v-6.473c-5.213 0-7.28-2.775-9.797-19.735l-10.426-70.3c-1.886-13.256-4.223-21.278-6.381-24.666v-.923h-.09c9.526-3.394 19.954-16.96 19.954-63.517 0-3.229-.052-6.335-.151-9.31 21.869 52.162 35.303 122.593 35.303 199.992 0 81.993-15.076 156.169-39.285 209.082z" fill="#000"/></mask><g opacity=".5"><path d="m165.859 171.521v-.923c8.718-3.698 14.92-24.356 14.92-56.734 0-43.4785-8.629-62.5942-20.223-62.5942h-23.187v6.4728c8.629 0 9.348 4.3176 9.348 23.1234v187.466c0 18.413-.691 22.938-8.812 23.117l4.137-58.883-1.887-1.543c-3.505 50.565-5.122 56.425-10.606 56.425h-16.357c-3.864 0-4.673-3.085-4.673-18.503v-188.079c0-18.8058.719-23.1234 9.348-23.1234v-6.4728h-24.2675v6.4728c8.6295 0 9.3475 4.3176 9.3475 23.1234v187.466c0 18.117-.668 22.786-8.4322 23.11-4.6367-.207-7.1417-2.383-10.4436-16.32l-26.694-112.546 20.9413-88.4927c3.5046-14.7982 6.0217-16.3407 11.2344-16.3407v-6.4728h-17.9746v6.4728c7.2802 0 6.2906 1.5425 2.786 16.3407l-22.9184 96.1987 25.3451 104.833c3.5046 14.798 4.5845 16.341-2.6074 16.341v6.472h85.4734c12.762 0 24.267-15.727 24.267-65.369 0-33.914-7.37-58.587-18.065-61.052zm-13.57-106.6857c2.517-2.4652 4.853-3.085 7.639-3.085 7.371 0 15.01 14.1853 15.01 50.8747 0 36.688-7.639 53.649-15.01 53.649-2.786 0-5.122-.31-7.639-1.543zm6.92 222.6197c-1.977 0-4.403-.923-6.92-3.085v-106.066c2.517-1.233 4.853-1.543 7.639-1.543 6.65 0 18.155 11.411 18.155 55.812s-9.885 54.882-18.874 54.882zm95.347-102.368c-6.66-35.842-16.18-67.993-28.295-95.5652-.169-.3787-.338-.7574-.506-1.1362-2.601-24.597-9.548-37.1158-19.271-37.1158h-.787c-6.674-10.033-13.75-18.6681-21.182-25.8228-16.161-15.56246-33.324-23.447-51.012-23.447s-34.8493 7.88454-51.0095 23.4401c-8.8438 8.5112-17.1777 19.1089-24.9357 31.6828v-5.86h-24.2672v6.4729c8.629 0 9.3476 4.3175 9.3476 23.1234v4.4346c-.6363 1.391-1.2666 2.7957-1.8928 4.2142-12.1136 27.572-21.6339 59.723-28.2958 95.565-6.93295 37.322-10.4496 76.993-10.4496 117.924 0 40.93 3.51665 80.608 10.4496 117.916 6.5455 35.223 15.853 66.878 27.6695 94.126v18.489c0 18.806-.7186 23.123-9.3476 23.123v6.473h21.7502v-6.782c-8.629.309-9.3476-4.008-9.3476-22.814l-.01-11.679c6.668 14.433 13.906 27.118 21.6518 37.977l1.0077 10.398h2.6957l.4717-4.786c4.3536 5.605 8.8558 10.653 13.4985 15.122 16.1601 15.555 33.3215 23.44 51.0095 23.44s34.851-7.885 51.009-23.44c5.273-5.075 10.364-10.894 15.259-17.429h10.845v-6.473c-2.346 0-4.106-.323-5.427-1.163 4.956-7.375 9.693-15.529 14.195-24.425l2.017 13.558c2.427 17.574 3.595 18.503 7.999 18.503h6.831v-6.473c-5.213 0-7.281-2.775-9.798-19.735l-2.322-15.666c.723-1.57 1.439-3.161 2.148-4.779 12.115-27.572 21.633-59.723 28.295-95.565 6.935-37.308 10.45-76.986 10.45-117.916 0-40.931-3.517-80.609-10.45-117.917zm-33.512-73.075c0 47.176-12.493 54.579-19.773 54.269h-2.608v-98.9805c1.58-2.9817 3.925-5.0062 6.606-5.4538 5.024 7.678 9.795 16.141 14.282 25.3063.959 6.8998 1.493 15.184 1.493 24.859zm-163.8655-54.2694c-3.059 4.9993-6.0297 10.3016-8.9041 15.9069.2971-12.5189 1.8346-15.7967 8.9041-15.9069zm-14.0245 451.9044-.1585-172.227h.2689l20.299 209.467c-7.3564-10.839-14.195-23.33-20.4094-37.24zm90.349 84.162c-23.101 0-44.7971-13.862-63.5506-38.101l21.8466-221.373h.269v199.186c0 18.806-.8089 23.124-9.438 23.124v6.472h59.769l.181-3.505v3.505h48.36c-17.297 19.626-36.807 30.685-57.437 30.685zm-25.167-224.94c.36-38.232 1.618-41.937 7.1-41.937h21.301l-33.38 229.334c-5.2353-1.384-5.8073-6.955-5.8073-22.745v-187.459c0-18.744.8049-23.096 9.2573-23.123l-.45 45.634 1.977.309zm35.37-45.917c7.565.393 8.221 5.144 8.221 23.096v187.466c0 18.703-.712 23.075-9.203 23.124l2.551-56.425-1.886-.922c-2.158 48.099-3.595 53.339-9.077 53.339h-23.818l33.214-229.685zm58.239 226.097c-.574-3.512-.674-8.511-.674-15.535v-91.577h4.853l11.899 79.967c-5.03 9.958-10.405 19.034-16.078 27.145zm-.674-117.593v-98.973c1.798-3.395 4.584-5.551 7.73-5.551 8.358 0 14.65 16.961 14.65 50.262 0 47.176-12.493 54.579-19.773 54.269h-2.607zm21.481 80.615-6.742-45.462c-1.887-13.255-4.223-21.278-6.381-24.665v-.923h-.09c9.526-3.395 19.953-16.961 19.953-63.517 0-40.394-7.908-61.052-20.401-61.052h-22.74v6.473c8.629 0 9.348 4.317 9.348 23.123v187.466c0 18.414-.691 22.938-8.812 23.117l4.137-58.883-1.887-1.542c-3.504 50.564-5.122 56.424-10.606 56.424h-16.357c-3.864 0-4.673-3.085-4.673-18.503v-188.065c0-18.806.719-23.123 9.348-23.123v-6.473h-59.95-16.5372l-21.4812 216.146h-.269l-21.122-216.146h-16.7181v6.473c8.629 0 9.3476 4.317 9.3476 23.123v156.568c-21.7783-52.127-35.15042-122.413-35.15042-199.633 0-77.221 14.40582-152.837 37.66952-205.4942v170.8292c0 18.806-.7186 23.124-9.3476 23.124v6.472h24.2672v-6.472c-8.629 0-9.3476-4.318-9.3476-23.124v-182.7146c22.7077-45.6614 52.5948-73.4329 85.2928-73.4329 23.412 0 45.379 14.2404 64.305 39.0853h-14.064v6.4728c8.629 0 9.347 4.3176 9.347 23.1234v187.466c0 18.806-.718 23.124-9.347 23.124v6.472h24.267v-6.472c-8.629 0-9.348-4.318-9.348-23.124v-91.571h4.854l15.279 102.678c2.427 17.574 3.595 18.503 7.999 18.503h6.83v-6.473c-5.213 0-7.28-2.775-9.797-19.735l-10.426-70.3c-1.886-13.256-4.223-21.278-6.381-24.666v-.923h-.09c9.526-3.394 19.954-16.96 19.954-63.517 0-3.229-.052-6.335-.151-9.31 21.869 52.162 35.303 122.593 35.303 199.992 0 81.993-15.076 156.169-39.285 209.082z" fill="#ffed00"/><path d="m105.899 316.466v.013h2v-.013zm59.96-145.868-.781-1.841-1.219.517v1.324zm-28.49-119.3282v-2h-2v2zm0 6.4728h-2v2h2zm.536 233.7064-1.995-.141-.154 2.188 2.193-.048zm4.137-58.883 1.995.14.072-1.033-.801-.656zm-1.887-1.543 1.266-1.548-2.994-2.447-.267 3.857zm-22.288-173.2804v2h2v-2zm0-6.4728h2v-2h-2zm-24.2675 0v-2h-2v2zm0 6.4728h-2v2h2zm.9153 233.6994-.089 1.998.0861.004.0862-.004zm-10.4436-16.32 1.9461-.461-.0001-.001zm-26.694-112.546-1.9462-.461-.1092.462.1094.461zm20.9413-88.4927-1.9462-.4609v.0003zm11.2344-16.3407v2h2v-2zm0-6.4728h2v-2h-2zm-17.9746 0v-2h-2v2zm0 6.4728h-2v2h2zm2.786 16.3407 1.9455.4635.0007-.0026zm-22.9184 96.1987-1.9456-.464-.1112.467.1128.467zm25.3451 104.833 1.9462-.461-.0022-.009zm-2.6074 16.341v-2h-2v2zm0 6.472h-2v2h2zm91.6754-126.421.45-1.949-2.45-.564v2.513zm-13.57-106.6717-1.4-1.4289-.6.5883v.8406zm0 99.8957h-2v1.248l1.12.549zm0 119.639h-2v.918l.696.599zm0-106.066-.88-1.796-1.12.548v1.248zm102.267 6.783-1.504 1.317 4.802 5.484-1.331-7.167zm-28.295-95.5652 1.831-.8046-.004-.0088zm-.506-1.1362-1.989.2104.033.3143.129.2887zm-20.058-37.1158-1.666 1.1077.594.8923h1.072zm-21.182-25.8228-1.388 1.4406.001.0003zm-102.0215-.0069 1.3869 1.4411.0001-.0001zm-24.9357 31.6828h-2v7.0505l3.7021-6.0003zm0-5.86h2v-2h-2zm-24.2672 0v-2h-2v2zm0 6.4729h-2v2h2zm9.3476 27.558 1.8187.8319.1813-.3962v-.4357zm-1.8928 4.2142-1.8297-.8077-.0014.0033zm-28.2958 95.565-1.9663-.366-.0001.001zm0 235.84-1.9664.366h.0001zm27.6695 94.126h2v-.415l-.1651-.381zm-9.3476 41.612v-2h-2v2zm0 6.473h-2v2h2zm21.7502 0v2h2v-2zm0-6.782h2v-2.074l-2.0717.075zm-9.3476-22.814h2v-.002zm-.01-11.679 1.8156-.839-3.8156.841zm21.6518 37.977 1.9907-.193-.0516-.533-.3108-.435zm1.0077 10.398-1.9907.193.1751 1.807h1.8156zm2.6957 0v2h1.8125l.1778-1.804zm.4717-4.786 1.5795-1.227-3.0778-3.962-.4921 4.993zm13.4985 15.122-1.387 1.441zm102.0185 0-1.386-1.441h-.001zm15.259-17.429v-2h-1l-.6.801zm10.845 0v2h2v-2zm0-6.473h2v-2h-2zm-5.427-1.163-1.66-1.116-1.144 1.702 1.73 1.101zm14.195-24.425 1.978-.295-.925-6.216-2.838 5.608zm2.017 13.558 1.981-.273-.001-.011-.002-.01zm14.83 18.503v2h2v-2zm0-6.473h2v-2h-2zm-9.798-19.735-1.978.293zm-2.322-15.666-1.817-.836-.249.541.088.588zm2.148-4.779-1.831-.804-.001.002zm28.295-95.565-1.966-.365zm0-235.833 1.505-1.318-4.803-5.483 1.332 7.166zm-53.279-18.799.085-1.998-.043-.002h-.042zm-2.608 0h-2v2h2zm0-98.9805-1.767-.9363-.233.4392v.4971zm6.606-5.4538 1.674-1.095-.715-1.0926-1.288.2149zm14.282 25.3063 1.98-.2754-.044-.3167-.14-.2871zm-162.3725-29.4104 1.7059 1.0439 1.8971-3.1002-3.6342.0566zm-8.9041 15.9069-1.9994-.0475 3.7791.96zm-5.1204 435.9975-2 .002.0004.426.1736.388zm-.1585-172.227v-2h-2.0019l.0019 2.002zm.2689 0 1.9907-.193-.1751-1.807h-1.8156zm20.299 209.467-1.6548 1.123 3.6455-1.316zm69.9396 46.922v2h2v-2zm-63.5506-38.101-1.9903-.196-.0781.791.4866.629zm21.8466-221.373v-2h-1.8123l-.178 1.804zm.269 0h2v-2h-2zm-9.438 222.31v-2h-2v2zm0 6.472h-2v2h2zm59.769 0v2h1.9l.097-1.897zm.181-3.505h2l-3.998-.102zm0 3.505h-2v2h2zm48.36 0 1.5 1.323 2.928-3.323h-4.428zm-57.437 30.685v-2h-2v2zm-25.167-224.933 1.98.288.019-.134.001-.136zm28.401-41.937 1.979.289.333-2.289h-2.312zm-33.38 229.334-.512 1.933 2.168.573.323-2.218zm3.45-233.327 2 .019.02-2.026-2.027.007zm-.45 45.634-2-.02-.017 1.728 1.708.267zm1.977.309-.309 1.976 1.997.313.292-2zm35.372-45.93-1.92-.56-.709 2.427 2.525.131zm-.982 233.686-1.998-.091-.095 2.103 2.105-.012zm2.551-56.425 1.998.091.06-1.311-1.179-.576zm-1.886-.922.878-1.797-2.74-1.34-.136 3.047zm-32.895 53.339-1.979-.286-.331 2.286h2.31zm33.214-229.685 1.979.287-3.899-.847zm58.237 226.104-1.974.323.794 4.855 2.819-4.032zm-.674-107.112v-2h-2v2zm4.853 0 1.978-.295-.253-1.705h-1.725zm11.899 79.967 1.785.902.287-.567-.094-.629zm-16.752-189.421-1.768-.937-.232.44v.497zm2.607 98.98.085-1.998-.042-.002h-.043zm-2.607 0h-2v2h2zm21.481 80.608h2v-.147l-.022-.146zm-6.742-45.462-1.98.282.001.012zm-6.381-24.665h-2v.582l.313.492zm0-.923h2v-2h-2zm-.09 0-.672-1.884.672 3.884zm-23.188-124.569v-2h-2v2zm0 6.473h-2v2h2zm.536 233.706-1.995-.14-.154 2.188 2.193-.049zm4.137-58.883 1.995.14.073-1.033-.802-.655zm-1.887-1.542 1.266-1.549-2.994-2.447-.267 3.857zm-22.288-173.267v2h2v-2zm0-6.473h2v-2h-2zm-76.4872 0v-2h-1.811l-.1792 1.802zm-21.4812 216.146v2h1.8111l.1791-1.802zm-.269 0-1.9905.195.1764 1.805h1.8141zm-21.122-216.146 1.9905-.195-.1764-1.805h-1.8141zm-16.7181 0v-2h-2v2zm0 6.473h-2v2h2zm9.3476 179.691-1.8454.771 3.8454-.771zm2.5191-405.1272h2l-3.8294-.8083zm-9.3476 193.9532v-2h-2v2zm0 6.472h-2v2h2zm24.2672 0v2h2v-2zm0-6.472h2v-2h-2zm-9.3476-205.8386-1.7908-.8905-.2092.4207v.4698zm149.5978-34.3476v2h4.038l-2.447-3.212zm-14.064 0v-2h-2v2zm0 6.4728h-2v2h2zm0 233.7134v-2h-2v2zm0 6.472h-2v2h2zm24.267 0v2h2v-2zm0-6.472h2v-2h-2zm-9.348-114.695v-2h-2v2zm4.854 0 1.978-.294-.254-1.706h-1.724zm15.279 102.678 1.981-.273-.001-.011-.002-.01zm14.829 18.503v2h2v-2zm0-6.473h2v-2h-2zm-9.797-19.735-1.978.293zm-10.426-70.3-1.98.282.002.011zm-6.381-24.666h-2v.583l.314.492zm0-.923h2v-2h-2zm-.09 0-.671-1.883.671 3.883zm19.803-72.827 1.845-.773-3.844.84zm-3.982 409.074h-2l3.819.832zm-54.893-340.571v-.923h-4v.923zm-1.219.918c2.709-1.149 5.01-3.515 6.936-6.671 1.936-3.174 3.591-7.306 4.942-12.255 2.702-9.903 4.261-23.352 4.261-39.649h-4c0 16.082-1.542 29.15-4.12 38.596-1.29 4.724-2.82 8.474-4.498 11.225-1.689 2.769-3.433 4.372-5.083 5.072zm16.139-58.575c0-21.8279-2.16-37.7399-5.878-48.2675-3.674-10.4057-9.199-16.3267-16.345-16.3267v4c4.448 0 9.035 3.6367 12.573 13.6585 3.496 9.9 5.65 25.2851 5.65 46.9357zm-22.223-64.5942h-23.187v4h23.187zm-25.187 2v6.4728h4v-6.4728zm2 8.4728c2.037 0 3.299.2641 4.143.7243.76.4142 1.385 1.1008 1.889 2.474.528 1.4403.874 3.5119 1.073 6.5107.197 2.9758.243 6.7116.243 11.4144h4c0-4.7-.045-8.5561-.252-11.679-.205-3.0999-.579-5.6338-1.309-7.6236-.754-2.0569-1.926-3.6251-3.728-4.6081-1.718-.937-3.781-1.2127-6.059-1.2127zm7.348 21.1234v187.466h4v-187.466zm0 187.466c0 4.604-.044 8.282-.231 11.228-.189 2.967-.516 5.049-1.021 6.518-.487 1.416-1.093 2.134-1.8 2.566-.768.469-1.92.764-3.804.805l.088 3.999c2.176-.048 4.156-.386 5.801-1.391 1.707-1.042 2.797-2.64 3.498-4.679.682-1.986 1.035-4.498 1.23-7.564.196-3.087.239-6.879.239-11.482zm-4.817 23.257 4.137-58.883-3.99-.28-4.137 58.882zm3.408-60.572-1.887-1.542-2.532 3.097 1.887 1.542zm-5.148-.132c-1.756 25.325-3.03 39.291-4.529 46.927-.757 3.861-1.521 5.793-2.22 6.751-.314.431-.58.613-.796.71-.234.105-.554.175-1.066.175v4c.858 0 1.789-.114 2.707-.527.935-.421 1.723-1.091 2.386-2 1.256-1.721 2.144-4.414 2.915-8.339 1.557-7.934 2.844-22.181 4.593-47.42zm-8.611 54.563h-16.357v4h16.357zm-16.357 0c-.706 0-.939-.139-1.06-.242-.166-.143-.489-.546-.787-1.72-.611-2.408-.826-6.762-.826-14.541h-4c0 7.639.19 12.536.949 15.525.387 1.525.991 2.857 2.063 3.774 1.118.957 2.435 1.204 3.661 1.204zm-2.673-16.503v-188.079h-4v188.079zm0-188.079c0-4.7028.046-8.4386.243-11.4144.199-2.9988.544-5.0704 1.073-6.5107.503-1.3732 1.129-2.0598 1.889-2.474.843-.4602 2.106-.7243 4.143-.7243v-4c-2.278 0-4.341.2757-6.059 1.2127-1.802.983-2.974 2.5512-3.729 4.6081-.73 1.9898-1.103 4.5237-1.308 7.6236-.207 3.1229-.252 6.979-.252 11.679zm9.348-23.1234v-6.4728h-4v6.4728zm-2-8.4728h-24.2675v4h24.2675zm-26.2675 2v6.4728h4v-6.4728zm2 8.4728c2.0366 0 3.2995.2641 4.1432.7243.7595.4142 1.3851 1.1008 1.8888 2.474.5285 1.4403.8745 3.5119 1.0725 6.5107.198 2.9758.243 6.7116.243 11.4144h4c0-4.7-.044-8.5561-.251-11.679-.206-3.0999-.579-5.6338-1.309-7.6236-.755-2.0569-1.927-3.6251-3.7289-4.6081-1.7179-.937-3.7807-1.2127-6.0586-1.2127zm7.3475 21.1234v187.466h4v-187.466zm0 187.466c0 4.53-.042 8.163-.222 11.086-.181 2.942-.495 5.029-.9832 6.519-.4739 1.446-1.0653 2.191-1.7401 2.639-.7191.477-1.7959.794-3.5702.867l.1666 3.997c2.1076-.088 4.0259-.476 5.6159-1.532 1.634-1.084 2.665-2.7 3.329-4.726.65-1.983.988-4.479 1.175-7.518.188-3.059.229-6.803.229-11.332zm-6.3432 21.112c-1.0211-.046-1.747-.194-2.3466-.482-.5771-.277-1.1781-.752-1.8264-1.678-1.3754-1.965-2.7606-5.647-4.4135-12.623l-3.8922.922c1.649 6.961 3.1673 11.336 5.0289 13.995.9704 1.386 2.0714 2.365 3.3712 2.989 1.2773.614 2.6033.815 3.9006.873zm-8.5866-14.784-26.694-112.546-3.892.924 26.694 112.545zm-26.6938-111.623 20.9414-88.4932-3.8925-.9211-20.9413 88.4923zm20.9413-88.4928c1.7598-7.4307 3.1922-11.1099 4.6159-12.9614.6529-.849 1.2662-1.2578 1.8999-1.4904.6887-.2529 1.5401-.3498 2.7724-.3498v-4c-1.3741 0-2.792.096-4.1509.5948-1.4138.519-2.6262 1.4207-3.6923 2.8071-2.0141 2.6193-3.5925 7.1104-5.3374 14.4779zm11.2882-16.8016v-6.4728h-4v6.4728zm-2-8.4728h-17.9746v4h17.9746zm-19.9746 2v6.4728h4v-6.4728zm2 8.4728c1.87 0 2.7674.12 3.2111.3103.0822.0353.1184.0616.1286.0697.0054.0042.0067.0059.006.0051-.0008-.0009-.001-.0013-.0001 0 .0008.0011.0168.0246.0375.0893.0215.0676.0472.1778.0642.3466.0771.7676-.0744 2.0613-.5509 4.3087-.4654 2.1951-1.1708 5.0099-2.0566 8.7501l3.8924.9218c.8665-3.6589 1.599-6.5863 2.0773-8.8423.4672-2.2038.7652-4.0704.6178-5.5381-.0781-.7769-.2899-1.5662-.7632-2.2694-.4867-.7232-1.1487-1.2055-1.8763-1.5176-1.3087-.5613-3.0177-.6342-4.7878-.6342zm.8404 13.8772-22.9184 96.1982 3.8911.927 22.9184-96.1982zm-22.9168 97.1322 25.3451 104.833 3.888-.94-25.3451-104.833zm25.3429 104.824c.8869 3.745 1.5973 6.556 2.0739 8.758.4872 2.251.6535 3.553.5871 4.33-.0147.172-.0388.284-.0593.352-.01.034-.0188.056-.0246.069-.0029.006-.0052.011-.0066.013-.0015.003-.0023.004-.0024.004 0 0 .0004 0 .0014-.002.0009-.001.0021-.002.0033-.004.0029-.003.0041-.004.0019-.002-.0037.003-.0322.026-.1061.058-.4142.182-1.2784.304-3.1298.304v4c1.7446 0 3.4423-.072 4.7389-.642.725-.318 1.3785-.81 1.8509-1.542.4571-.708.6521-1.497.7179-2.267.1245-1.458-.1868-3.317-.6631-5.517-.4868-2.249-1.2256-5.18-2.091-8.834zm-2.6612 15.88v6.472h4v-6.472zm2 8.472h85.4734v-4h-85.4734zm85.4734 0c7.431 0 14.077-4.668 18.749-15.261 4.639-10.516 7.518-27.188 7.518-52.108h-4c0 24.722-2.873 40.734-7.177 50.493-4.271 9.681-9.759 12.876-15.09 12.876zm26.267-67.369c0-17.079-1.853-31.93-5.104-42.888-1.625-5.474-3.623-10.064-5.979-13.487-2.343-3.406-5.181-5.853-8.532-6.626l-.899 3.898c1.996.46 4.09 2.022 6.136 4.995 2.034 2.956 3.884 7.116 5.439 12.358 3.108 10.473 4.939 24.915 4.939 41.75zm-22.065-61.052v.014h4v-.014zm-10.171-105.2429c1.09-1.0672 2.07-1.6698 3.016-2.0208.954-.3543 1.98-.493 3.224-.493v-4c-1.542 0-3.077.1712-4.617.7432-1.548.5751-2.994 1.515-4.422 2.9129zm6.24-2.5138c1.14 0 2.5.5336 3.984 2.1446 1.502 1.6309 3.032 4.2742 4.396 8.1918 2.726 7.8307 4.63 20.296 4.63 38.5383h4c0-18.4475-1.916-31.4194-4.852-39.8535-1.468-4.2149-3.229-7.4109-5.232-9.5863-2.022-2.1953-4.381-3.4349-6.926-3.4349zm13.01 48.8747c0 18.234-1.902 31.418-4.645 39.972-1.375 4.284-2.925 7.295-4.464 9.195-1.545 1.906-2.89 2.482-3.901 2.482v4c2.674 0 5.048-1.544 7.009-3.964 1.966-2.428 3.708-5.95 5.164-10.492 2.919-9.098 4.837-22.739 4.837-41.193zm-13.01 51.649c-2.613 0-4.615-.288-6.76-1.339l-1.759 3.593c2.889 1.414 5.56 1.746 8.519 1.746zm-5.639.457v-99.8957h-4v99.8957zm4.92 120.724c-1.365 0-3.347-.652-5.617-2.602l-2.607 3.034c2.765 2.374 5.636 3.568 8.224 3.568zm-4.92-1.085v-106.066h-4v106.066zm-1.121-104.27c2.145-1.051 4.147-1.339 6.76-1.339v-4c-2.959 0-5.63.332-8.519 1.747zm6.76-1.339c2.132 0 6.153 1.929 9.742 10.063 3.549 8.043 6.413 21.682 6.413 43.749h4c0-22.335-2.888-36.602-6.754-45.364-3.826-8.672-8.883-12.448-13.401-12.448zm16.155 53.812c0 22.112-2.47 35.499-5.897 43.286-1.703 3.872-3.6 6.26-5.451 7.676-1.825 1.396-3.696 1.92-5.526 1.92v4c2.665 0 5.4-.787 7.957-2.743 2.531-1.937 4.79-4.944 6.682-9.242 3.763-8.554 6.235-22.608 6.235-44.897zm80.44-47.852c-6.683-35.962-16.243-68.266-28.431-96.0038l-3.662 1.6092c12.042 27.4056 21.523 59.4046 28.16 95.1256zm-28.435-96.0126c-.085-.1893-.169-.3787-.253-.5681-.084-.1893-.169-.3787-.253-.5681l-3.654 1.6268c.084.1894.168.3787.253.5681.084.1894.168.3788.253.5681zm-.344-.5331c-1.312-12.4043-3.736-21.9745-7.186-28.5056-3.457-6.5454-8.173-10.3999-14.074-10.3999v4c3.821 0 7.44 2.4048 10.537 8.2681 3.105 5.8776 5.455 14.8653 6.745 27.0581zm-21.26-38.9055h-.787v4h.787zm.878.8922c-6.741-10.1332-13.907-18.8848-21.46-26.1559l-2.774 2.8818c7.311 7.0382 14.296 15.5568 20.903 25.4896zm-21.46-26.1556c-16.429-15.82106-34.065-24.0064-52.399-24.0064v4c17.042 0 33.733 7.5837 49.624 22.8876zm-52.399-24.0064c-18.333 0-35.968 8.18531-52.3965 23.9992l2.774 2.8819c15.8918-15.2973 32.5805-22.8811 49.6225-22.8811zm-52.3963 23.9991c-8.9871 8.649-17.4225 19.3854-25.251 32.0736l3.4042 2.1004c7.6874-12.4597 15.9199-22.9186 24.6205-31.2919zm-21.5489 33.1238v-5.86h-4v5.86zm-2-7.86h-24.2672v4h24.2672zm-26.2672 2v6.4729h4v-6.4729zm2 8.4729c2.0366 0 3.2995.264 4.1432.7242.7594.4142 1.3851 1.1008 1.8888 2.4741.5284 1.4403.874 3.5118 1.0729 6.5106.1973 2.9758.2427 6.7116.2427 11.4145h4c0-4.7001-.0444-8.5562-.2515-11.6791-.2056-3.0999-.5789-5.6338-1.3088-7.6236-.7545-2.0569-1.9265-3.6251-3.7287-4.6081-1.7179-.937-3.7808-1.2126-6.0586-1.2126zm7.3476 21.1234v4.4346h4v-4.4346zm.1812 3.6026c-.6403 1.3999-1.2742 2.8127-1.9037 4.2385l3.6593 1.6155c.6231-1.4113 1.2497-2.8079 1.8819-4.1901zm-1.9051 4.2418c-12.1867 27.7384-21.7466 60.0414-28.431 96.0034l3.9326.731c6.6395-35.721 16.1201-67.72 28.1605-95.1255zm-28.4311 96.0044c-6.95694 37.451-10.4832 77.245-10.4832 118.289h4c0-40.818 3.50704-80.366 10.4159-117.559zm-10.4832 118.289c0 41.043 3.52625 80.844 10.4832 118.282l3.9327-.731c-6.90885-37.179-10.4159-76.734-10.4159-117.551zm10.4833 118.282c6.5676 35.341 15.9138 67.145 27.8009 94.556l3.6698-1.592c-11.7459-27.085-21.0146-58.592-27.5381-93.695zm27.6358 93.76v18.489h4v-18.489zm0 18.489c0 4.703-.0454 8.439-.2427 11.414-.1989 2.999-.5445 5.071-1.0729 6.511-.5037 1.373-1.1293 2.06-1.8887 2.474-.8438.46-2.1067.724-4.1433.724v4c2.2779 0 4.3407-.275 6.0586-1.212 1.8022-.983 2.9742-2.551 3.7287-4.608.73-1.99 1.1033-4.524 1.3088-7.624.2071-3.123.2515-6.979.2515-11.679zm-9.3476 23.123v6.473h4v-6.473zm2 8.473h21.7502v-4h-21.7502zm23.7502-2v-6.782h-4v6.782zm-2.0717-8.781c-2.0403.073-3.2924-.149-4.1186-.571-.7321-.375-1.3446-1.018-1.8443-2.364-.5256-1.417-.8714-3.475-1.0703-6.471-.1973-2.97-.2427-6.706-.2427-11.409h-4c0 4.7.0444 8.556.2515 11.675.2055 3.093.5787 5.621 1.3113 7.596.7586 2.045 1.9437 3.598 3.7732 4.534 1.7355.887 3.8092 1.089 6.0834 1.007zm-7.2759-20.817-.01-11.678-4 .003.01 11.679zm-3.8256-10.838c6.7109 14.526 14.0092 27.322 21.8392 38.299l3.2565-2.322c-7.6617-10.742-14.8395-23.314-21.4645-37.655zm21.4768 37.331 1.0076 10.398 3.9813-.386-1.0076-10.398zm2.9983 12.205h2.6957v-4h-2.6957zm4.686-1.804.4717-4.786-3.9807-.392-.4717 4.786zm-3.0982-3.755c4.4063 5.673 8.9721 10.793 13.6911 15.336l2.774-2.882c-4.5664-4.396-9.005-9.37-13.306-14.908zm13.6911 15.336c16.4285 15.814 34.0635 23.999 52.3965 23.999v-4c-17.042 0-33.7307-7.584-49.6225-22.881zm52.3965 23.999c18.333 0 35.97-8.185 52.397-23.999l-2.775-2.882c-15.889 15.297-32.58 22.881-49.622 22.881zm52.396-23.999c5.36-5.158 10.521-11.06 15.473-17.671l-3.201-2.398c-4.839 6.459-9.859 12.195-15.045 17.187zm13.872-16.87h10.845v-4h-10.845zm12.845-2v-6.473h-4v6.473zm-2-8.473c-2.216 0-3.514-.317-4.354-.851l-2.147 3.375c1.802 1.146 4.024 1.476 6.501 1.476zm-3.767 1.952c5.007-7.451 9.785-15.676 14.319-24.637l-3.569-1.806c-4.469 8.832-9.165 16.913-14.07 24.212zm10.557-25.246 2.017 13.559 3.956-.589-2.017-13.559zm2.014 13.538c.608 4.403 1.143 7.807 1.675 10.429.528 2.598 1.077 4.554 1.755 5.992.701 1.486 1.616 2.577 2.93 3.197 1.212.572 2.522.611 3.62.611v-4c-1.104 0-1.592-.077-1.913-.228-.219-.104-.574-.343-1.019-1.287-.467-.99-.941-2.562-1.453-5.081-.506-2.494-1.027-5.797-1.633-10.18zm9.98 20.229h6.831v-4h-6.831zm8.831-2v-6.473h-4v6.473zm-2-8.473c-1.144 0-1.87-.156-2.421-.455-.528-.288-1.107-.822-1.72-1.985-1.299-2.464-2.412-7.057-3.678-15.589l-3.957.587c1.251 8.429 2.43 13.704 4.097 16.867.87 1.652 1.943 2.871 3.347 3.634 1.382.751 2.868.941 4.332.941zm-7.819-18.028-2.323-15.666-3.956.586 2.322 15.666zm-2.484-14.537c.727-1.58 1.449-3.182 2.163-4.813l-3.664-1.604c-.703 1.605-1.415 3.185-2.133 4.745zm2.162-4.81c12.188-27.739 21.746-60.042 28.431-96.004l-3.933-.731c-6.639 35.721-16.118 67.72-28.16 95.126zm28.431-96.004c6.959-37.438 10.483-77.239 10.483-118.282h-4c0 40.817-3.505 80.372-10.416 117.551zm10.483-118.282c0-41.044-3.526-80.845-10.483-118.283l-3.933.731c6.909 37.179 10.416 76.734 10.416 117.552zm-13.954-116.6.006.007 3.009-2.635-.006-.007zm-34.002-74.385c0 23.475-3.119 36.733-6.929 44.014-3.735 7.14-8.017 8.373-10.759 8.257l-.17 3.996c4.538.193 10.142-2.12 14.474-10.398 4.256-8.137 7.384-22.168 7.384-45.869zm-17.773 52.269h-2.608v4h2.608zm-.608 2v-98.9805h-4v98.9805zm-.232-98.0442c1.394-2.6325 3.295-4.1048 5.167-4.4173l-.658-3.9455c-3.491.5827-6.279 3.1594-8.044 6.4902zm3.165-5.295c4.973 7.6008 9.704 15.9906 14.158 25.0905l3.593-1.7585c-4.518-9.2308-9.33-17.767-14.404-25.5221zm13.974 24.4867c.944 6.7886 1.474 14.9775 1.474 24.5835h4c0-9.745-.538-18.1234-1.513-25.1344zm-162.0975-30.7297c-3.0867 5.0445-6.0818 10.3907-8.9777 16.0381l3.5593 1.8251c2.8528-5.5631 5.799-10.8214 8.8303-15.7755zm-5.1986 16.9981c.0737-3.1048.2233-5.5637.5028-7.5152.2813-1.9644.6775-3.2838 1.1668-4.1828.4577-.8409 1.0063-1.3355 1.7292-1.6634.7856-.3563 1.8945-.5675 3.5369-.5931l-.0623-3.9995c-1.8922.0295-3.6266.2693-5.1268.9498-1.563.7089-2.7428 1.8368-3.5903 3.394-.8159 1.499-1.3017 3.3532-1.6131 5.5279-.3133 2.1874-.4672 4.8328-.5421 7.9874zm-5.1199 435.9481-.1585-172.227-4 .004.1585 172.227zm-2.1585-170.225h.2689v-4h-.2689zm-1.7217-1.807 20.299 209.467 3.9813-.386-20.299-209.467zm23.9445 208.151c-7.2804-10.727-14.0639-23.112-20.2382-36.933l-3.6521 1.632c6.2543 13.999 13.1481 26.596 20.5806 37.547zm68.2847 46.045c-22.237 0-43.413-13.341-61.9687-37.325l-3.1637 2.448c18.9511 24.494 41.1664 38.877 65.1324 38.877zm-61.5602-35.905 21.8465-221.373-3.9806-.392-21.8466 221.373zm19.8562-219.569h.269v-4h-.269zm-1.731-2v199.186h4v-199.186zm0 199.186c0 4.701-.0511 8.436-.2565 11.409-.207 2.996-.5629 5.066-1.1002 6.505-.5124 1.373-1.1472 2.064-1.919 2.483-.855.463-2.1267.727-4.1623.727v4c2.279 0 4.3442-.276 6.0679-1.21 1.8068-.979 2.9922-2.542 3.7606-4.6.7435-1.991 1.1292-4.527 1.3435-7.629.2159-3.125.266-6.983.266-11.685zm-9.438 23.124v6.472h4v-6.472zm2 8.472h59.769v-4h-59.769zm61.766-1.897.181-3.505-3.995-.205-.18 3.505zm-3.816-3.608v3.505h4v-3.505zm2 5.505h48.36v-4h-48.36zm46.859-3.322c-17.069 19.367-36.076 30.007-55.936 30.007v4c21.4 0 41.413-11.479 58.937-31.362zm-57.936 32.007v.007h4v-.007zm-21.167-224.915c.181-19.177.59-29.465 1.597-34.963.509-2.779 1.11-3.94 1.584-4.44.338-.357.768-.552 1.919-.552v-4c-1.59 0-3.373.269-4.824 1.802-1.315 1.389-2.078 3.544-2.614 6.47-1.083 5.912-1.482 16.592-1.661 35.646zm5.1-39.955h21.301v-4h-21.301zm19.322-2.288-33.381 229.334 3.959.576 33.38-229.333zm-30.89 227.688c-.967-.255-1.596-.661-2.08-1.251-.518-.632-.985-1.619-1.347-3.225-.7384-3.278-.8913-8.376-.8913-16.335h-4c0 7.831.1331 13.414.9893 17.214.4356 1.934 1.0935 3.586 2.155 4.881 1.0956 1.337 2.5 2.147 4.151 2.583zm-4.3183-20.811v-187.459h-4v187.459zm0-187.459c0-4.685.0508-8.411.2532-11.381.2041-2.992.5541-5.066 1.0841-6.512.506-1.383 1.132-2.077 1.882-2.495.826-.461 2.059-.729 4.045-.735l-.014-4c-2.24.007-4.278.293-5.979 1.242-1.7792.991-2.9391 2.562-3.6903 4.613-.7283 1.988-1.1074 4.518-1.3185 7.615-.2127 3.119-.2625 6.966-.2625 11.653zm5.2573-23.143-.45 45.634 4 .039.45-45.634zm1.241 47.629 1.977.31.619-3.952-1.977-.309zm4.266-1.377.002-.014-3.959-.577-.002.014zm33.288-44.221c1.712.089 2.747.415 3.439.895.658.456 1.241 1.216 1.707 2.678.478 1.5.785 3.591.962 6.519.176 2.909.217 6.518.217 11.006h4c0-4.488-.04-8.205-.224-11.247-.183-3.025-.513-5.512-1.144-7.493-.644-2.019-1.643-3.643-3.237-4.749-1.558-1.082-3.442-1.497-5.513-1.604zm6.325 21.098v187.466h4v-187.466zm0 187.466c0 4.677-.045 8.398-.239 11.366-.197 2.99-.537 5.065-1.06 6.513-.499 1.385-1.12 2.079-1.864 2.498-.823.463-2.056.735-4.051.747l.023 4c2.249-.013 4.29-.305 5.988-1.26 1.777-1 2.927-2.576 3.667-4.628.717-1.989 1.085-4.517 1.288-7.608.204-3.114.248-6.953.248-11.628zm-5.205 23.214 2.551-56.424-3.996-.181-2.551 56.424zm1.432-58.311-1.887-.923-1.757 3.593 1.887.923zm-4.763.784c-1.081 24.096-1.977 37.28-3.263 44.443-.651 3.626-1.351 5.372-1.984 6.21-.278.367-.517.523-.727.611-.237.099-.569.165-1.105.165v4c.835 0 1.746-.098 2.646-.474.926-.386 1.715-1.015 2.377-1.89 1.246-1.649 2.067-4.219 2.73-7.915 1.343-7.482 2.245-20.968 3.322-44.971zm-7.079 51.429h-23.818v4h23.818zm-21.838 2.286 33.213-229.684-3.959-.573-33.213 229.685zm29.314-230.531-.002.007 3.84 1.121.002-.007zm62.131 226.342c-.543-3.322-.648-8.15-.648-15.213h-4c0 6.985.095 12.156.7 15.858zm-.648-15.213v-91.577h-4v91.577zm-2-89.577h4.853v-4h-4.853zm2.875-1.706 11.899 79.968 3.956-.589-11.899-79.968zm12.092 78.772c-4.993 9.882-10.32 18.875-15.932 26.9l3.278 2.292c5.733-8.198 11.157-17.357 16.224-27.389zm-12.967-89.547v-98.973h-4v98.973zm-.233-98.037c1.594-3.008 3.818-4.487 5.963-4.487v-4c-4.147 0-7.494 2.833-9.498 6.614zm5.963-4.487c1.329 0 2.772.651 4.281 2.454 1.53 1.829 3.001 4.714 4.269 8.784 2.532 8.127 4.1 20.464 4.1 37.024h4c0-16.742-1.578-29.535-4.281-38.214-1.35-4.332-3.02-7.769-5.02-10.16-2.022-2.418-4.499-3.888-7.349-3.888zm12.65 48.262c0 23.475-3.119 36.733-6.928 44.015-3.736 7.139-8.018 8.372-10.76 8.256l-.17 3.996c4.538.193 10.143-2.12 14.474-10.398 4.257-8.136 7.384-22.168 7.384-45.869zm-17.773 52.269h-2.607v4h2.607zm-.607 2v-.007h-4v.007zm21.459 80.315-6.742-45.462-3.957.587 6.743 45.462zm-6.74-45.45c-.951-6.681-2.021-12.082-3.137-16.267-1.105-4.144-2.291-7.235-3.537-9.192l-3.374 2.149c.911 1.431 1.972 4.045 3.046 8.073 1.064 3.987 2.106 9.225 3.042 15.8zm-6.361-24.384v-.923h-4v.923zm-2-2.923h-.09v4h.09zm.581 3.884c5.437-1.938 10.785-6.694 14.738-16.724 3.93-9.97 6.544-25.286 6.544-48.677h-4c0 23.166-2.599 37.91-6.265 47.211-3.642 9.241-8.27 12.964-12.36 14.422zm21.282-65.401c0-20.284-1.98-35.806-5.626-46.329-3.601-10.393-9.164-16.723-16.775-16.723v4c4.881 0 9.519 3.999 12.996 14.033 3.431 9.905 5.405 24.909 5.405 45.019zm-22.401-63.052h-22.74v4h22.74zm-24.74 2v6.473h4v-6.473zm2 8.473c2.037 0 3.3.264 4.143.724.76.414 1.385 1.101 1.889 2.474.529 1.44.874 3.512 1.073 6.511.197 2.976.243 6.711.243 11.414h4c0-4.7-.045-8.556-.252-11.679-.205-3.1-.579-5.634-1.309-7.623-.754-2.057-1.926-3.626-3.728-4.609-1.718-.937-3.781-1.212-6.059-1.212zm7.348 21.123v187.466h4v-187.466zm0 187.466c0 4.604-.044 8.282-.231 11.228-.189 2.967-.516 5.049-1.021 6.518-.487 1.417-1.093 2.134-1.799 2.566-.769.469-1.921.764-3.805.805l.088 3.999c2.177-.048 4.156-.386 5.801-1.39 1.707-1.043 2.797-2.641 3.498-4.679.682-1.986 1.035-4.499 1.23-7.565.196-3.087.239-6.879.239-11.482zm-4.817 23.257 4.137-58.883-3.99-.28-4.137 58.883zm3.408-60.571-1.887-1.543-2.532 3.097 1.887 1.543zm-5.148-.133c-1.755 25.325-3.03 39.291-4.528 46.927-.758 3.861-1.522 5.793-2.221 6.751-.314.431-.58.613-.796.71-.234.106-.554.175-1.066.175v4c.858 0 1.789-.114 2.707-.527.935-.42 1.723-1.091 2.386-2 1.256-1.721 2.145-4.414 2.915-8.338 1.557-7.935 2.844-22.182 4.593-47.421zm-8.611 54.563h-16.357v4h16.357zm-16.357 0c-.706 0-.939-.139-1.059-.242-.167-.143-.49-.546-.788-1.72-.611-2.408-.826-6.762-.826-14.541h-4c0 7.639.19 12.536.949 15.526.387 1.524.991 2.856 2.063 3.773 1.118.958 2.435 1.204 3.661 1.204zm-2.673-16.503v-188.065h-4v188.065zm0-188.065c0-4.703.046-8.439.243-11.414.199-2.999.545-5.071 1.073-6.511.504-1.373 1.129-2.06 1.889-2.474.843-.46 2.106-.724 4.143-.724v-4c-2.278 0-4.341.275-6.059 1.212-1.802.983-2.974 2.551-3.728 4.608-.73 1.99-1.104 4.524-1.309 7.624-.207 3.123-.252 6.979-.252 11.679zm9.348-23.123v-6.473h-4v6.473zm-2-8.473h-59.95v4h59.95zm-59.95 0h-16.5372v4h16.5372zm-18.5274 1.802-21.4812 216.146 3.9804.396 21.4812-216.147zm-19.491 214.344h-.269v4h.269zm1.7215 1.806-21.122-216.147-3.981.389 21.122 216.147zm-23.1125-217.952h-16.7181v4h16.7181zm-18.7181 2v6.473h4v-6.473zm2 8.473c2.0366 0 3.2995.264 4.1432.724.7595.414 1.3851 1.101 1.8888 2.474.5284 1.44.874 3.512 1.0729 6.511.1973 2.975.2427 6.711.2427 11.414h4c0-4.7-.0444-8.556-.2515-11.679-.2055-3.1-.5788-5.634-1.3088-7.624-.7545-2.057-1.9264-3.625-3.7287-4.608-1.7179-.937-3.7807-1.212-6.0586-1.212zm7.3476 21.123v156.568h4v-156.568zm3.8454 155.797c-21.6563-51.835-34.99582-121.85-34.99582-198.862h-4c0 77.427 13.40472 147.985 35.30502 200.404zm-34.99582-198.862c0-77.014 14.37342-152.341 37.49892-204.686l-3.6588-1.6165c-23.4019 52.9705-37.84012 128.8755-37.84012 206.3025zm33.66952-205.4942v170.8292h4v-170.8292zm0 170.8292c0 4.703-.0454 8.439-.2427 11.415-.1989 2.998-.5445 5.07-1.0729 6.51-.5038 1.373-1.1294 2.06-1.8888 2.474-.8437.46-2.1066.725-4.1432.725v4c2.2778 0 4.3407-.276 6.0586-1.213 1.8022-.983 2.9742-2.551 3.7287-4.608.7299-1.99 1.1032-4.524 1.3088-7.624.2071-3.123.2515-6.979.2515-11.679zm-9.3476 23.124v6.472h4v-6.472zm2 8.472h24.2672v-4h-24.2672zm26.2672-2v-6.472h-4v6.472zm-2-8.472c-2.0366 0-3.2995-.265-4.1432-.725-.7594-.414-1.3851-1.101-1.8888-2.474-.5284-1.44-.874-3.512-1.0729-6.51-.1973-2.976-.2427-6.712-.2427-11.415h-4c0 4.7.0444 8.556.2515 11.679.2056 3.1.5789 5.634 1.3088 7.624.7545 2.057 1.9265 3.625 3.7287 4.608 1.7179.937 3.7808 1.213 6.0586 1.213zm-7.3476-21.124v-182.7146h-4v182.7146zm-.2092-181.824c22.6319-45.5091 52.013-72.3235 83.502-72.3235v-4c-33.906 0-64.3001 28.7285-87.0836 74.5424zm83.502-72.3235c22.536 0 43.982 13.7064 62.714 38.2972l3.182-2.4239c-19.119-25.0989-41.607-39.8733-65.896-39.8733zm64.305 35.0853h-14.064v4h14.064zm-16.064 2v6.4728h4v-6.4728zm2 8.4728c2.036 0 3.299.2641 4.143.7243.759.4142 1.385 1.1008 1.889 2.474.528 1.4403.874 3.5119 1.073 6.5107.197 2.9758.242 6.7116.242 11.4144h4c0-4.7-.044-8.5561-.251-11.679-.206-3.0999-.579-5.6338-1.309-7.6236-.754-2.0569-1.926-3.6251-3.729-4.6081-1.718-.937-3.78-1.2127-6.058-1.2127zm7.347 21.1234v187.466h4v-187.466zm0 187.466c0 4.703-.045 8.439-.242 11.415-.199 2.998-.545 5.07-1.073 6.51-.504 1.373-1.13 2.06-1.889 2.474-.844.46-2.107.725-4.143.725v4c2.278 0 4.34-.276 6.058-1.213 1.803-.983 2.975-2.551 3.729-4.608.73-1.99 1.103-4.524 1.309-7.624.207-3.123.251-6.979.251-11.679zm-9.347 23.124v6.472h4v-6.472zm2 8.472h24.267v-4h-24.267zm26.267-2v-6.472h-4v6.472zm-2-8.472c-2.037 0-3.299-.265-4.143-.725-.76-.414-1.385-1.101-1.889-2.474-.528-1.44-.874-3.512-1.073-6.51-.197-2.976-.243-6.712-.243-11.415h-4c0 4.7.045 8.556.252 11.679.205 3.1.579 5.634 1.309 7.624.754 2.057 1.926 3.625 3.728 4.608 1.718.937 3.781 1.213 6.059 1.213zm-7.348-21.124v-91.571h-4v91.571zm-2-89.571h4.854v-4h-4.854zm2.876-1.705 15.279 102.678 3.956-.589-15.279-102.678zm15.276 102.657c.608 4.403 1.143 7.807 1.675 10.429.528 2.598 1.076 4.554 1.755 5.992.701 1.486 1.616 2.577 2.93 3.197 1.212.572 2.521.611 3.62.611v-4c-1.104 0-1.592-.077-1.913-.228-.22-.104-.574-.343-1.019-1.287-.468-.99-.941-2.562-1.453-5.081-.507-2.494-1.028-5.797-1.633-10.18zm9.98 20.229h6.83v-4h-6.83zm8.83-2v-6.473h-4v6.473zm-2-8.473c-1.143 0-1.87-.156-2.421-.456-.528-.287-1.106-.821-1.719-1.984-1.299-2.464-2.413-7.057-3.679-15.589l-3.956.587c1.251 8.429 2.429 13.704 4.096 16.867.871 1.652 1.944 2.871 3.348 3.634 1.381.751 2.868.941 4.331.941zm-7.819-18.029-10.425-70.299-3.957.586 10.426 70.3zm-10.424-70.288c-.95-6.68-2.02-12.082-3.136-16.267-1.105-4.143-2.291-7.234-3.538-9.191l-3.373 2.149c.911 1.431 1.972 4.044 3.046 8.073 1.063 3.987 2.105 9.224 3.041 15.8zm-6.361-24.384v-.923h-4v.923zm-2-2.923h-.09v4h.09zm.582 3.884c5.436-1.937 10.785-6.694 14.738-16.723 3.93-9.97 6.544-25.287 6.544-48.678h-4c0 23.166-2.6 37.911-6.265 47.211-3.643 9.241-8.271 12.965-12.36 14.423zm21.282-65.401c0-3.251-.053-6.378-.152-9.376l-3.998.133c.098 2.952.15 6.035.15 9.243zm-3.995-8.536c21.746 51.869 35.147 122.027 35.147 199.218h4c0-77.607-13.467-148.31-35.458-200.765zm35.147 199.218c0 81.777-15.041 155.657-39.104 208.25l3.638 1.664c24.355-53.232 39.466-127.706 39.466-209.914zm-35.285 209.082v-.021h-4v.021z" fill="#000" mask="url(#a)"/></g></svg>