<svg width="1220" height="690" viewBox="0 0 1220 690" fill="none" xmlns="http://www.w3.org/2000/svg">
<g opacity="0.5">
<mask id="path-1-outside-1_272_2" maskUnits="userSpaceOnUse" x="0" y="0" width="1220" height="690" fill="black">
<rect fill="white" width="1220" height="690"/>
<path d="M759.124 196.049V195.003C799.297 190.814 827.879 167.411 827.879 130.73C827.879 81.4732 788.113 59.8172 734.685 59.8172H627.829V67.1503C667.595 67.1503 670.907 72.0416 670.907 93.3466V305.725C670.907 326.585 667.725 331.711 630.299 331.914L649.363 265.206L640.668 263.458C624.518 320.742 617.062 327.381 591.791 327.381H516.413C498.607 327.381 494.879 323.886 494.879 306.419V93.3466C494.879 72.0416 498.191 67.1503 537.956 67.1503V59.8172H426.124V67.1503C465.89 67.1503 469.201 72.0416 469.201 93.3466V305.725C469.201 326.25 466.121 331.539 430.342 331.906C408.974 331.672 397.43 329.207 382.214 313.417L259.198 185.915L355.704 85.6624C371.854 68.8978 383.454 67.1503 407.476 67.1503V59.8172H324.642V67.1503C358.192 67.1503 353.632 68.8978 337.481 85.6624L231.865 194.645L348.664 313.409C364.815 330.174 369.791 331.921 336.649 331.921V339.254H730.541C789.353 339.254 842.374 321.437 842.374 265.198C842.374 226.777 808.408 198.826 759.124 196.033V196.049ZM696.585 75.1855C708.184 72.3927 718.951 71.6906 731.79 71.6906C765.756 71.6906 800.962 87.761 800.962 129.325C800.962 170.89 765.756 190.104 731.79 190.104C718.951 190.104 708.184 189.753 696.585 188.357V75.1855ZM728.479 327.389C719.367 327.389 708.184 326.344 696.585 323.894V203.733C708.184 202.336 718.951 201.985 731.79 201.985C762.435 201.985 815.456 214.912 815.456 265.214C815.456 315.516 769.9 327.389 728.479 327.389ZM1167.87 211.417C1137.18 170.812 1093.31 134.388 1037.47 103.153C1036.7 102.724 1035.92 102.294 1035.14 101.865C1023.16 73.9997 991.142 59.8172 946.335 59.8172H942.709C911.952 48.451 879.346 38.6683 845.093 30.5629C770.622 12.9323 691.525 4 610.014 4C528.503 4 449.415 12.9323 374.944 30.5551C334.188 40.1973 295.782 52.2033 260.031 66.4482V59.8094H148.198V67.1425C187.964 67.1425 191.276 72.0338 191.276 93.3388V98.3627C188.343 99.9386 185.439 101.53 182.553 103.137C126.729 134.373 82.8563 170.796 52.1555 211.401C20.206 253.684 4 298.626 4 344.996C4 391.366 20.206 436.316 52.1555 478.583C82.3198 518.486 125.212 554.348 179.667 585.217V606.163C179.667 627.468 176.355 632.359 136.59 632.359V639.692H236.823V632.008C197.057 632.359 193.745 627.468 193.745 606.163L193.699 592.932C224.428 609.284 257.783 623.653 293.479 635.956L298.122 647.735H310.545L312.719 642.314C332.782 648.664 353.53 654.382 374.925 659.445C449.397 677.068 528.484 686 609.995 686C691.506 686 770.603 677.068 845.066 659.445C869.365 653.695 892.823 647.103 915.384 639.7H965.362V632.367C954.549 632.367 946.437 632 940.35 631.049C963.188 622.694 985.018 613.457 1005.77 603.378L1015.06 618.738C1026.25 638.647 1031.63 639.7 1051.92 639.7H1083.4V632.367C1059.38 632.367 1049.85 629.223 1038.25 610.009L1027.55 592.261C1030.88 590.483 1034.18 588.681 1037.45 586.847C1093.28 555.612 1137.14 519.188 1167.84 478.583C1199.8 436.316 1216 391.366 1216 344.996C1216 298.626 1199.79 253.676 1167.84 211.409L1167.87 211.417ZM1013.43 128.631C1013.43 182.077 955.862 190.463 922.312 190.112H910.297V77.9783C917.576 74.6004 928.38 72.3069 940.738 71.7998C963.891 80.4981 985.878 90.0857 1006.55 100.469C1010.97 108.286 1013.43 117.671 1013.43 128.631ZM258.283 67.1503C244.186 72.8139 230.496 78.8208 217.25 85.171C218.619 70.9885 225.704 67.2751 258.283 67.1503ZM193.653 579.109L192.922 383.994H194.162L287.707 621.297C253.806 609.018 222.291 594.867 193.653 579.109ZM610.014 674.454C503.556 674.454 403.572 658.751 317.15 631.291L417.827 380.499H419.066V606.155C419.066 627.46 415.338 632.352 375.573 632.352V639.685H651.01L651.842 635.714V639.685H874.703C794.995 661.918 705.085 674.446 610.014 674.446V674.454ZM494.037 419.622C495.693 376.31 501.493 372.113 526.755 372.113H624.916L471.088 631.922C446.964 630.354 444.328 624.043 444.328 606.155V393.784C444.328 372.55 448.037 367.619 486.989 367.588L484.917 419.286L494.028 419.637L494.037 419.622ZM657.032 367.604C691.895 368.048 694.92 373.431 694.92 393.769V606.147C694.92 627.335 691.636 632.289 652.508 632.344L664.265 568.421L655.57 567.376C645.626 621.867 639.003 627.803 613.742 627.803H503.981L657.041 367.596L657.032 367.604ZM925.42 623.747C922.775 619.768 922.312 614.105 922.312 606.147V502.4H944.679L999.513 592.995C976.332 604.275 951.561 614.557 925.42 623.747ZM922.312 490.527V378.401C930.6 374.555 943.44 372.113 957.934 372.113C996.451 372.113 1025.45 391.327 1025.45 429.053C1025.45 482.499 967.878 490.885 934.328 490.534H922.312V490.527ZM1021.31 581.855L990.235 530.351C981.54 515.334 970.773 506.246 960.83 502.408V501.362H960.413C1004.31 497.516 1052.37 482.148 1052.37 429.405C1052.37 383.643 1015.92 360.24 958.35 360.24H853.557V367.573C893.323 367.573 896.634 372.464 896.634 393.769V606.147C896.634 627.008 893.452 632.133 856.027 632.336L875.091 565.628L866.396 563.881C850.246 621.165 842.79 627.803 817.519 627.803H742.141C724.335 627.803 720.607 624.308 720.607 606.842V393.784C720.607 372.48 723.918 367.588 763.684 367.588V360.255H487.414H411.204L312.21 605.125H310.971L213.633 360.255H136.59V367.588C176.355 367.588 179.667 372.48 179.667 393.784V571.159C79.3043 512.105 17.6808 432.478 17.6808 344.996C17.6808 257.514 84.068 171.85 191.276 112.194V305.725C191.276 327.03 187.964 331.921 148.198 331.921V339.254H260.031V331.921C220.265 331.921 216.954 327.03 216.954 305.725V98.7294C321.599 47 459.331 15.5379 610.014 15.5379C717.906 15.5379 819.138 31.6707 906.356 59.8172H841.541V67.1503C881.307 67.1503 884.619 72.0416 884.619 93.3466V305.725C884.619 327.03 881.307 331.921 841.541 331.921V339.254H953.374V331.921C913.608 331.921 910.297 327.03 910.297 305.725V201.985H932.663L1003.07 318.308C1014.26 338.217 1019.64 339.27 1039.94 339.27H1071.41V331.937C1047.39 331.937 1037.86 328.793 1026.26 309.579L978.219 229.937C969.524 214.92 958.757 205.831 948.814 201.993V200.948H948.397C992.298 197.102 1040.35 181.734 1040.35 128.99C1040.35 125.331 1040.11 121.813 1039.66 118.443C1140.44 177.537 1202.35 257.327 1202.35 345.012C1202.35 437.9 1132.87 521.934 1021.31 581.878V581.855Z"/>
</mask>
<path d="M759.124 196.049V195.003C799.297 190.814 827.879 167.411 827.879 130.73C827.879 81.4732 788.113 59.8172 734.685 59.8172H627.829V67.1503C667.595 67.1503 670.907 72.0416 670.907 93.3466V305.725C670.907 326.585 667.725 331.711 630.299 331.914L649.363 265.206L640.668 263.458C624.518 320.742 617.062 327.381 591.791 327.381H516.413C498.607 327.381 494.879 323.886 494.879 306.419V93.3466C494.879 72.0416 498.191 67.1503 537.956 67.1503V59.8172H426.124V67.1503C465.89 67.1503 469.201 72.0416 469.201 93.3466V305.725C469.201 326.25 466.121 331.539 430.342 331.906C408.974 331.672 397.43 329.207 382.214 313.417L259.198 185.915L355.704 85.6624C371.854 68.8978 383.454 67.1503 407.476 67.1503V59.8172H324.642V67.1503C358.192 67.1503 353.632 68.8978 337.481 85.6624L231.865 194.645L348.664 313.409C364.815 330.174 369.791 331.921 336.649 331.921V339.254H730.541C789.353 339.254 842.374 321.437 842.374 265.198C842.374 226.777 808.408 198.826 759.124 196.033V196.049ZM696.585 75.1855C708.184 72.3927 718.951 71.6906 731.79 71.6906C765.756 71.6906 800.962 87.761 800.962 129.325C800.962 170.89 765.756 190.104 731.79 190.104C718.951 190.104 708.184 189.753 696.585 188.357V75.1855ZM728.479 327.389C719.367 327.389 708.184 326.344 696.585 323.894V203.733C708.184 202.336 718.951 201.985 731.79 201.985C762.435 201.985 815.456 214.912 815.456 265.214C815.456 315.516 769.9 327.389 728.479 327.389ZM1167.87 211.417C1137.18 170.812 1093.31 134.388 1037.47 103.153C1036.7 102.724 1035.92 102.294 1035.14 101.865C1023.16 73.9997 991.142 59.8172 946.335 59.8172H942.709C911.952 48.451 879.346 38.6683 845.093 30.5629C770.622 12.9323 691.525 4 610.014 4C528.503 4 449.415 12.9323 374.944 30.5551C334.188 40.1973 295.782 52.2033 260.031 66.4482V59.8094H148.198V67.1425C187.964 67.1425 191.276 72.0338 191.276 93.3388V98.3627C188.343 99.9386 185.439 101.53 182.553 103.137C126.729 134.373 82.8563 170.796 52.1555 211.401C20.206 253.684 4 298.626 4 344.996C4 391.366 20.206 436.316 52.1555 478.583C82.3198 518.486 125.212 554.348 179.667 585.217V606.163C179.667 627.468 176.355 632.359 136.59 632.359V639.692H236.823V632.008C197.057 632.359 193.745 627.468 193.745 606.163L193.699 592.932C224.428 609.284 257.783 623.653 293.479 635.956L298.122 647.735H310.545L312.719 642.314C332.782 648.664 353.53 654.382 374.925 659.445C449.397 677.068 528.484 686 609.995 686C691.506 686 770.603 677.068 845.066 659.445C869.365 653.695 892.823 647.103 915.384 639.7H965.362V632.367C954.549 632.367 946.437 632 940.35 631.049C963.188 622.694 985.018 613.457 1005.77 603.378L1015.06 618.738C1026.25 638.647 1031.63 639.7 1051.92 639.7H1083.4V632.367C1059.38 632.367 1049.85 629.223 1038.25 610.009L1027.55 592.261C1030.88 590.483 1034.18 588.681 1037.45 586.847C1093.28 555.612 1137.14 519.188 1167.84 478.583C1199.8 436.316 1216 391.366 1216 344.996C1216 298.626 1199.79 253.676 1167.84 211.409L1167.87 211.417ZM1013.43 128.631C1013.43 182.077 955.862 190.463 922.312 190.112H910.297V77.9783C917.576 74.6004 928.38 72.3069 940.738 71.7998C963.891 80.4981 985.878 90.0857 1006.55 100.469C1010.97 108.286 1013.43 117.671 1013.43 128.631ZM258.283 67.1503C244.186 72.8139 230.496 78.8208 217.25 85.171C218.619 70.9885 225.704 67.2751 258.283 67.1503ZM193.653 579.109L192.922 383.994H194.162L287.707 621.297C253.806 609.018 222.291 594.867 193.653 579.109ZM610.014 674.454C503.556 674.454 403.572 658.751 317.15 631.291L417.827 380.499H419.066V606.155C419.066 627.46 415.338 632.352 375.573 632.352V639.685H651.01L651.842 635.714V639.685H874.703C794.995 661.918 705.085 674.446 610.014 674.446V674.454ZM494.037 419.622C495.693 376.31 501.493 372.113 526.755 372.113H624.916L471.088 631.922C446.964 630.354 444.328 624.043 444.328 606.155V393.784C444.328 372.55 448.037 367.619 486.989 367.588L484.917 419.286L494.028 419.637L494.037 419.622ZM657.032 367.604C691.895 368.048 694.92 373.431 694.92 393.769V606.147C694.92 627.335 691.636 632.289 652.508 632.344L664.265 568.421L655.57 567.376C645.626 621.867 639.003 627.803 613.742 627.803H503.981L657.041 367.596L657.032 367.604ZM925.42 623.747C922.775 619.768 922.312 614.105 922.312 606.147V502.4H944.679L999.513 592.995C976.332 604.275 951.561 614.557 925.42 623.747ZM922.312 490.527V378.401C930.6 374.555 943.44 372.113 957.934 372.113C996.451 372.113 1025.45 391.327 1025.45 429.053C1025.45 482.499 967.878 490.885 934.328 490.534H922.312V490.527ZM1021.31 581.855L990.235 530.351C981.54 515.334 970.773 506.246 960.83 502.408V501.362H960.413C1004.31 497.516 1052.37 482.148 1052.37 429.405C1052.37 383.643 1015.92 360.24 958.35 360.24H853.557V367.573C893.323 367.573 896.634 372.464 896.634 393.769V606.147C896.634 627.008 893.452 632.133 856.027 632.336L875.091 565.628L866.396 563.881C850.246 621.165 842.79 627.803 817.519 627.803H742.141C724.335 627.803 720.607 624.308 720.607 606.842V393.784C720.607 372.48 723.918 367.588 763.684 367.588V360.255H487.414H411.204L312.21 605.125H310.971L213.633 360.255H136.59V367.588C176.355 367.588 179.667 372.48 179.667 393.784V571.159C79.3043 512.105 17.6808 432.478 17.6808 344.996C17.6808 257.514 84.068 171.85 191.276 112.194V305.725C191.276 327.03 187.964 331.921 148.198 331.921V339.254H260.031V331.921C220.265 331.921 216.954 327.03 216.954 305.725V98.7294C321.599 47 459.331 15.5379 610.014 15.5379C717.906 15.5379 819.138 31.6707 906.356 59.8172H841.541V67.1503C881.307 67.1503 884.619 72.0416 884.619 93.3466V305.725C884.619 327.03 881.307 331.921 841.541 331.921V339.254H953.374V331.921C913.608 331.921 910.297 327.03 910.297 305.725V201.985H932.663L1003.07 318.308C1014.26 338.217 1019.64 339.27 1039.94 339.27H1071.41V331.937C1047.39 331.937 1037.86 328.793 1026.26 309.579L978.219 229.937C969.524 214.92 958.757 205.831 948.814 201.993V200.948H948.397C992.298 197.102 1040.35 181.734 1040.35 128.99C1040.35 125.331 1040.11 121.813 1039.66 118.443C1140.44 177.537 1202.35 257.327 1202.35 345.012C1202.35 437.9 1132.87 521.934 1021.31 581.878V581.855Z" fill="#FFED00"/>
<path d="M485.414 360.255V360.271H489.414V360.255H485.414ZM759.124 195.003L758.709 191.025L755.124 191.399V195.003H759.124ZM627.829 59.8172V55.8172H623.829V59.8172H627.829ZM627.829 67.1503H623.829V71.1503H627.829V67.1503ZM630.299 331.914L626.453 330.814L624.988 335.942L630.321 335.914L630.299 331.914ZM649.363 265.206L653.209 266.305L654.4 262.138L650.152 261.284L649.363 265.206ZM640.668 263.458L641.456 259.537L637.824 258.807L636.818 262.373L640.668 263.458ZM537.956 67.1503V71.1503H541.956V67.1503H537.956ZM537.956 59.8172H541.956V55.8172H537.956V59.8172ZM426.124 59.8172V55.8172H422.124V59.8172H426.124ZM426.124 67.1503H422.124V71.1503H426.124V67.1503ZM430.342 331.906L430.298 335.906L430.34 335.906L430.383 335.906L430.342 331.906ZM382.214 313.417L385.094 310.641L385.093 310.64L382.214 313.417ZM259.198 185.915L256.317 183.141L253.643 185.918L256.32 188.692L259.198 185.915ZM355.704 85.6624L352.823 82.8873L352.822 82.8884L355.704 85.6624ZM407.476 67.1503V71.1503H411.476V67.1503H407.476ZM407.476 59.8172H411.476V55.8172H407.476V59.8172ZM324.642 59.8172V55.8172H320.642V59.8172H324.642ZM324.642 67.1503H320.642V71.1503H324.642V67.1503ZM337.481 85.6624L340.354 88.4462L340.362 88.4376L337.481 85.6624ZM231.865 194.645L228.992 191.861L226.274 194.665L229.013 197.449L231.865 194.645ZM348.664 313.409L351.545 310.634L351.531 310.619L351.516 310.604L348.664 313.409ZM336.649 331.921V327.921H332.649V331.921H336.649ZM336.649 339.254H332.649V343.254H336.649V339.254ZM759.124 196.033L759.35 192.04L755.124 191.8V196.033H759.124ZM696.585 75.1855L695.648 71.2966L692.585 72.0343V75.1855H696.585ZM696.585 188.357H692.585V191.904L696.107 192.328L696.585 188.357ZM696.585 323.894H692.585V327.137L695.758 327.808L696.585 323.894ZM696.585 203.733L696.107 199.762L692.585 200.186V203.733H696.585ZM1167.87 211.417L1166.79 215.268L1178.22 218.477L1171.06 209.005L1167.87 211.417ZM1037.47 103.153L1039.43 99.6618L1039.42 99.6564L1039.41 99.651L1037.47 103.153ZM1035.14 101.865L1031.47 103.446L1032.01 104.705L1033.21 105.367L1035.14 101.865ZM942.709 59.8172L941.322 63.5692L941.993 63.8172H942.709V59.8172ZM845.093 30.5629L844.172 34.4553L844.172 34.4554L845.093 30.5629ZM374.944 30.5551L375.865 34.4477L375.865 34.4476L374.944 30.5551ZM260.031 66.4482H256.031V72.3478L261.511 70.1641L260.031 66.4482ZM260.031 59.8094H264.031V55.8094H260.031V59.8094ZM148.198 59.8094V55.8094H144.198V59.8094H148.198ZM148.198 67.1425H144.198V71.1425H148.198V67.1425ZM191.276 98.3627L193.169 101.886L195.276 100.754V98.3627H191.276ZM182.553 103.137L180.607 99.6423L180.6 99.6463L182.553 103.137ZM52.1555 211.401L48.9649 208.989L48.9641 208.99L52.1555 211.401ZM52.1555 478.583L48.9646 480.995L48.9646 480.995L52.1555 478.583ZM179.667 585.217H183.667V582.886L181.639 581.737L179.667 585.217ZM136.59 632.359V628.359H132.59V632.359H136.59ZM136.59 639.692H132.59V643.692H136.59V639.692ZM236.823 639.692V643.692H240.823V639.692H236.823ZM236.823 632.008H240.823V627.973L236.787 628.008L236.823 632.008ZM193.745 606.163H197.745L197.745 606.149L193.745 606.163ZM193.699 592.932L195.578 589.401L189.676 586.26L189.699 592.946L193.699 592.932ZM293.479 635.956L297.2 634.489L296.524 632.774L294.782 632.174L293.479 635.956ZM298.122 647.735L294.401 649.202L295.4 651.735H298.122V647.735ZM310.545 647.735V651.735H313.251L314.258 649.224L310.545 647.735ZM312.719 642.314L313.926 638.5L310.387 637.38L309.006 640.825L312.719 642.314ZM374.925 659.445L374.004 663.337H374.004L374.925 659.445ZM845.066 659.445L844.145 655.552L844.144 655.552L845.066 659.445ZM915.384 639.7V635.7H914.745L914.137 635.9L915.384 639.7ZM965.362 639.7V643.7H969.362V639.7H965.362ZM965.362 632.367H969.362V628.367H965.362V632.367ZM940.35 631.049L938.976 627.292L924.441 632.61L939.732 635.001L940.35 631.049ZM1005.77 603.378L1009.19 601.307L1007.3 598.186L1004.02 599.78L1005.77 603.378ZM1015.06 618.738L1018.55 616.779L1018.52 616.723L1018.48 616.667L1015.06 618.738ZM1083.4 639.7V643.7H1087.4V639.7H1083.4ZM1083.4 632.367H1087.4V628.367H1083.4V632.367ZM1038.25 610.009L1034.83 612.075L1034.83 612.076L1038.25 610.009ZM1027.55 592.261L1025.67 588.733L1021.95 590.718L1024.12 594.327L1027.55 592.261ZM1037.45 586.847L1035.49 583.357L1035.49 583.359L1037.45 586.847ZM1167.84 478.583L1164.65 476.171V476.171L1167.84 478.583ZM1167.84 211.409L1168.93 207.558L1157.49 204.349L1164.65 213.821L1167.84 211.409ZM922.312 190.112L922.354 186.112L922.333 186.112H922.312V190.112ZM910.297 190.112H906.297V194.112H910.297V190.112ZM910.297 77.9783L908.613 74.3499L906.297 75.4247V77.9783H910.297ZM940.738 71.7998L942.145 68.0553L941.385 67.7699L940.574 67.8032L940.738 71.7998ZM1006.55 100.469L1010.03 98.4997L1009.43 97.4406L1008.35 96.8945L1006.55 100.469ZM258.283 67.1503L259.774 70.862L258.267 63.1503L258.283 67.1503ZM217.25 85.171L213.268 84.7867L212.587 91.8421L218.979 88.7779L217.25 85.171ZM193.653 579.109L189.653 579.124L189.662 581.478L191.724 582.613L193.653 579.109ZM192.922 383.994V379.994H188.907L188.922 384.009L192.922 383.994ZM194.162 383.994L197.883 382.527L196.884 379.994H194.162V383.994ZM287.707 621.297L286.345 625.058L294.679 628.077L291.428 619.83L287.707 621.297ZM610.014 674.454V678.454H614.014V674.454H610.014ZM317.15 631.291L313.438 629.8L311.833 633.798L315.938 635.103L317.15 631.291ZM417.827 380.499V376.499H415.122L414.115 379.009L417.827 380.499ZM419.066 380.499H423.066V376.499H419.066V380.499ZM375.573 632.352V628.352H371.573V632.352H375.573ZM375.573 639.685H371.573V643.685H375.573V639.685ZM651.01 639.685V643.685H654.258L654.925 640.505L651.01 639.685ZM651.842 635.714H655.842L647.927 634.893L651.842 635.714ZM651.842 639.685H647.842V643.685H651.842V639.685ZM874.703 639.685L875.777 643.537L874.703 635.685V639.685ZM610.014 674.446V670.446H606.014V674.446H610.014ZM494.037 419.622L497.478 421.663L497.996 420.789L498.034 419.775L494.037 419.622ZM624.916 372.113L628.358 374.151L631.932 368.113H624.916V372.113ZM471.088 631.922L470.829 635.914L473.279 636.073L474.53 633.96L471.088 631.922ZM486.989 367.588L490.986 367.748L491.153 363.585L486.986 363.588L486.989 367.588ZM484.917 419.286L480.92 419.126L480.76 423.129L484.763 423.284L484.917 419.286ZM494.028 419.637L493.874 423.635L496.253 423.726L497.468 421.678L494.028 419.637ZM657.032 367.604L654.456 364.544L646.231 371.466L656.981 371.604L657.032 367.604ZM652.508 632.344L648.574 631.62L647.704 636.35L652.514 636.344L652.508 632.344ZM664.265 568.421L668.199 569.145L668.969 564.958L664.743 564.45L664.265 568.421ZM655.57 567.376L656.048 563.404L652.311 562.955L651.635 566.658L655.57 567.376ZM503.981 627.803L500.533 625.775L496.988 631.803H503.981V627.803ZM657.041 367.596L660.489 369.624L654.465 364.536L657.041 367.596ZM925.42 623.747L922.09 625.962L923.812 628.552L926.747 627.52L925.42 623.747ZM922.312 502.4V498.4H918.312V502.4H922.312ZM944.679 502.4L948.101 500.329L946.934 498.4H944.679V502.4ZM999.513 592.995L1001.26 596.591L1005.2 594.673L1002.93 590.923L999.513 592.995ZM922.312 378.401L920.629 374.772L918.312 375.847V378.401H922.312ZM934.328 490.534L934.37 486.535L934.349 486.534H934.328V490.534ZM922.312 490.534H918.312V494.534H922.312V490.534ZM1021.31 581.855H1025.31V580.742L1024.73 579.788L1021.31 581.855ZM990.235 530.351L986.774 532.356L986.792 532.387L986.81 532.418L990.235 530.351ZM960.83 502.408H956.83V505.151L959.389 506.139L960.83 502.408ZM960.83 501.362H964.83V497.362H960.83V501.362ZM960.413 501.362L960.064 497.378L960.413 505.362V501.362ZM853.557 360.24V356.24H849.557V360.24H853.557ZM853.557 367.573H849.557V371.573H853.557V367.573ZM856.027 632.336L852.181 631.237L850.715 636.365L856.049 636.336L856.027 632.336ZM875.091 565.628L878.937 566.727L880.128 562.56L875.879 561.707L875.091 565.628ZM866.396 563.881L867.184 559.959L863.552 559.229L862.546 562.795L866.396 563.881ZM763.684 367.588V371.588H767.684V367.588H763.684ZM763.684 360.255H767.684V356.255H763.684V360.255ZM411.204 360.255V356.255H408.506L407.495 358.756L411.204 360.255ZM312.21 605.125V609.125H314.908L315.919 606.625L312.21 605.125ZM310.971 605.125L307.253 606.603L308.256 609.125H310.971V605.125ZM213.633 360.255L217.35 358.778L216.347 356.255H213.633V360.255ZM136.59 360.255V356.255H132.59V360.255H136.59ZM136.59 367.588H132.59V371.588H136.59V367.588ZM179.667 571.159L177.638 574.607L183.667 578.154V571.159H179.667ZM191.276 112.194H195.276V105.391L189.331 108.699L191.276 112.194ZM148.198 331.921V327.921H144.198V331.921H148.198ZM148.198 339.254H144.198V343.254H148.198V339.254ZM260.031 339.254V343.254H264.031V339.254H260.031ZM260.031 331.921H264.031V327.921H260.031V331.921ZM216.954 98.7294L215.181 95.1436L212.954 96.2447V98.7294H216.954ZM906.356 59.8172V63.8172L907.585 56.0106L906.356 59.8172ZM841.541 59.8172V55.8172H837.541V59.8172H841.541ZM841.541 67.1503H837.541V71.1503H841.541V67.1503ZM841.541 331.921V327.921H837.541V331.921H841.541ZM841.541 339.254H837.541V343.254H841.541V339.254ZM953.374 339.254V343.254H957.374V339.254H953.374ZM953.374 331.921H957.374V327.921H953.374V331.921ZM910.297 201.985V197.985H906.297V201.985H910.297ZM932.663 201.985L936.085 199.914L934.918 197.985H932.663V201.985ZM1003.07 318.308L1006.56 316.349L1006.53 316.293L1006.5 316.237L1003.07 318.308ZM1071.41 339.27V343.27H1075.41V339.27H1071.41ZM1071.41 331.937H1075.41V327.937H1071.41V331.937ZM1026.26 309.579L1022.84 311.645L1022.84 311.646L1026.26 309.579ZM978.219 229.937L974.758 231.941L974.776 231.972L974.794 232.003L978.219 229.937ZM948.814 201.993H944.814V204.737L947.373 205.725L948.814 201.993ZM948.814 200.948H952.814V196.948H948.814V200.948ZM948.397 200.948L948.048 196.963L948.397 204.948V200.948ZM1039.66 118.443L1041.68 114.992L1034.6 110.84L1035.69 118.976L1039.66 118.443ZM1021.31 581.878H1017.31V588.568L1023.2 585.402L1021.31 581.878ZM763.124 196.049V195.003H755.124V196.049H763.124ZM759.539 198.982C780.258 196.821 798.308 189.675 811.243 178.023C824.25 166.307 831.879 150.207 831.879 130.73H823.879C823.879 147.933 817.217 161.875 805.889 172.079C794.49 182.346 778.163 188.996 758.709 191.025L759.539 198.982ZM831.879 130.73C831.879 104.854 821.347 85.873 803.603 73.5195C786.064 61.3084 761.849 55.8172 734.685 55.8172V63.8172C760.949 63.8172 783.332 69.1541 799.032 80.085C814.528 90.8737 823.879 107.349 823.879 130.73H831.879ZM734.685 55.8172H627.829V63.8172H734.685V55.8172ZM623.829 59.8172V67.1503H631.829V59.8172H623.829ZM627.829 71.1503C637.728 71.1503 645.175 71.4571 650.805 72.212C656.479 72.9729 659.906 74.1427 662.053 75.5819C665.856 78.1301 666.907 82.3792 666.907 93.3466H674.907C674.907 83.009 674.302 74.16 666.507 68.9362C662.856 66.4895 657.998 65.105 651.868 64.283C645.693 63.455 637.814 63.1503 627.829 63.1503V71.1503ZM666.907 93.3466V305.725H674.907V93.3466H666.907ZM666.907 305.725C666.907 316.472 665.893 320.751 662.311 323.312C660.324 324.733 657.146 325.917 651.839 326.714C646.568 327.505 639.583 327.863 630.277 327.914L630.321 335.914C639.728 335.863 647.175 335.504 653.027 334.625C658.843 333.752 663.477 332.313 666.964 329.82C674.33 324.553 674.907 315.839 674.907 305.725H666.907ZM634.145 333.013L653.209 266.305L645.517 264.107L626.453 330.814L634.145 333.013ZM650.152 261.284L641.456 259.537L639.88 267.38L648.575 269.128L650.152 261.284ZM636.818 262.373C632.79 276.66 629.337 287.67 626.042 296.167C622.738 304.688 619.677 310.457 616.524 314.406C613.45 318.256 610.271 320.402 606.542 321.658C602.673 322.961 598.003 323.381 591.791 323.381V331.381C598.215 331.381 603.954 330.971 609.095 329.239C614.376 327.461 618.808 324.367 622.776 319.397C626.665 314.526 630.075 307.894 633.501 299.059C636.936 290.201 640.471 278.899 644.518 264.544L636.818 262.373ZM591.791 323.381H516.413V331.381H591.791V323.381ZM516.413 323.381C512.04 323.381 508.801 323.161 506.36 322.648C503.959 322.142 502.611 321.409 501.751 320.576C500.901 319.754 500.159 318.477 499.642 316.184C499.113 313.838 498.879 310.698 498.879 306.419H490.879C490.879 310.874 491.111 314.721 491.838 317.943C492.576 321.217 493.878 324.09 496.187 326.324C498.484 328.549 501.407 329.781 504.713 330.476C507.979 331.164 511.883 331.381 516.413 331.381V323.381ZM498.879 306.419V93.3466H490.879V306.419H498.879ZM498.879 93.3466C498.879 82.3792 499.93 78.1301 503.732 75.5819C505.88 74.1427 509.306 72.9729 514.981 72.212C520.611 71.4571 528.058 71.1503 537.956 71.1503V63.1503C527.972 63.1503 520.093 63.455 513.918 64.283C507.787 65.105 502.93 66.4895 499.279 68.9362C491.484 74.16 490.879 83.009 490.879 93.3466H498.879ZM541.956 67.1503V59.8172H533.956V67.1503H541.956ZM537.956 55.8172H426.124V63.8172H537.956V55.8172ZM422.124 59.8172V67.1503H430.124V59.8172H422.124ZM426.124 71.1503C436.022 71.1503 443.469 71.4571 449.099 72.212C454.774 72.9729 458.2 74.1427 460.348 75.5819C464.15 78.1301 465.201 82.3792 465.201 93.3466H473.201C473.201 83.009 472.596 74.16 464.801 68.9362C461.15 66.4895 456.293 65.105 450.162 64.283C443.988 63.455 436.108 63.1503 426.124 63.1503V71.1503ZM465.201 93.3466V305.725H473.201V93.3466H465.201ZM465.201 305.725C465.201 316.303 464.217 320.602 460.788 323.175C458.913 324.582 455.909 325.776 450.864 326.599C445.848 327.417 439.188 327.815 430.301 327.906L430.383 335.906C439.385 335.813 446.528 335.412 452.152 334.494C457.747 333.581 462.222 332.101 465.589 329.574C472.645 324.28 473.201 315.672 473.201 305.725H465.201ZM430.386 327.906C419.779 327.79 412.104 327.111 405.297 324.721C398.588 322.365 392.406 318.228 385.094 310.641L379.334 316.193C387.239 324.396 394.437 329.386 402.646 332.269C410.756 335.117 419.537 335.788 430.298 335.906L430.386 327.906ZM385.093 310.64L262.077 183.138L256.32 188.692L379.335 316.194L385.093 310.64ZM262.08 188.689L358.585 88.4365L352.822 82.8884L256.317 183.141L262.08 188.689ZM358.584 88.4376C366.352 80.3746 372.746 76.2026 379.856 73.9297C387.12 71.6073 395.457 71.1503 407.476 71.1503V63.1503C395.473 63.1503 385.998 63.567 377.42 66.3096C368.686 69.1016 361.206 74.1856 352.823 82.8873L358.584 88.4376ZM411.476 67.1503V59.8172H403.476V67.1503H411.476ZM407.476 55.8172H324.642V63.8172H407.476V55.8172ZM320.642 59.8172V67.1503H328.642V59.8172H320.642ZM324.642 71.1503C333.064 71.1503 338.859 71.2632 342.654 71.6632C344.569 71.8652 345.71 72.1166 346.334 72.3445C347.039 72.6019 346.376 72.5609 345.996 71.6327C345.602 70.6687 346.061 70.1023 345.793 70.6317C345.554 71.1049 345.013 71.8844 343.977 73.085C341.898 75.4963 338.771 78.5576 334.6 82.8873L340.362 88.4376C344.266 84.385 347.766 80.9411 350.036 78.3097C351.175 76.9889 352.239 75.6127 352.931 74.2439C353.596 72.9313 354.313 70.8368 353.402 68.6066C352.505 66.4121 350.548 65.3669 349.079 64.8301C347.529 64.2638 345.615 63.9312 343.493 63.7074C339.211 63.2559 332.995 63.1503 324.642 63.1503V71.1503ZM334.609 82.8787L228.992 191.861L234.737 197.428L340.353 88.4462L334.609 82.8787ZM229.013 197.449L345.812 316.214L351.516 310.604L234.716 191.84L229.013 197.449ZM345.784 316.184C349.968 320.528 353.113 323.58 355.259 326.018C356.322 327.225 356.905 328.027 357.179 328.535C357.5 329.129 357.025 328.613 357.363 327.639C357.72 326.61 358.474 326.508 357.85 326.746C357.291 326.959 356.217 327.208 354.35 327.41C350.658 327.808 344.971 327.921 336.649 327.921V335.921C344.897 335.921 351.017 335.816 355.209 335.363C357.284 335.139 359.17 334.804 360.697 334.223C362.158 333.666 364.122 332.56 364.92 330.265C365.698 328.025 364.892 325.981 364.218 324.732C363.497 323.399 362.42 322.045 361.263 320.731C358.969 318.126 355.436 314.673 351.545 310.634L345.784 316.184ZM332.649 331.921V339.254H340.649V331.921H332.649ZM336.649 343.254H730.541V335.254H336.649V343.254ZM730.541 343.254C760.233 343.254 788.987 338.776 810.459 326.81C832.223 314.681 846.374 294.89 846.374 265.198H838.374C838.374 291.745 826.015 308.982 806.565 319.822C786.823 330.824 759.662 335.254 730.541 335.254V343.254ZM846.374 265.198C846.374 223.822 809.804 194.899 759.35 192.04L758.898 200.027C807.011 202.753 838.374 229.733 838.374 265.198H846.374ZM755.124 196.033V196.049H763.124V196.033H755.124ZM697.521 79.0744C708.689 76.3856 719.104 75.6906 731.79 75.6906V67.6906C718.798 67.6906 707.68 68.3998 695.648 71.2966L697.521 79.0744ZM731.79 75.6906C748.226 75.6906 764.631 79.5915 776.806 88.1888C788.804 96.6609 796.962 109.857 796.962 129.325H804.962C804.962 107.229 795.517 91.6081 781.42 81.6539C767.501 71.8249 749.32 67.6906 731.79 67.6906V75.6906ZM796.962 129.325C796.962 148.828 788.768 162.863 776.68 172.127C764.469 181.485 748.084 186.104 731.79 186.104V194.104C749.462 194.104 767.663 189.116 781.546 178.476C795.552 167.742 804.962 151.388 804.962 129.325H796.962ZM731.79 186.104C719.026 186.104 708.437 185.755 697.063 184.385L696.107 192.328C707.931 193.752 718.877 194.104 731.79 194.104V186.104ZM700.585 188.357V75.1855H692.585V188.357H700.585ZM728.479 323.389C719.65 323.389 708.744 322.374 697.411 319.98L695.758 327.808C707.624 330.314 719.085 331.389 728.479 331.389V323.389ZM700.585 323.894V203.733H692.585V323.894H700.585ZM697.063 207.704C708.437 206.335 719.026 205.985 731.79 205.985V197.985C718.877 197.985 707.931 198.338 696.107 199.762L697.063 207.704ZM731.79 205.985C746.682 205.985 766.864 209.147 783.168 218.231C799.272 227.202 811.456 241.813 811.456 265.214H819.456C819.456 238.313 805.131 221.309 787.062 211.242C769.195 201.287 747.543 197.985 731.79 197.985V205.985ZM811.456 265.214C811.456 288.852 800.907 303.092 785.55 311.673C769.866 320.435 748.935 323.389 728.479 323.389V331.389C749.443 331.389 772.001 328.406 789.452 318.656C807.227 308.725 819.456 291.877 819.456 265.214H811.456ZM1171.06 209.005C1139.96 167.861 1095.62 131.101 1039.43 99.6618L1035.52 106.643C1090.99 137.676 1134.4 173.763 1164.68 213.829L1171.06 209.005ZM1039.41 99.651C1039.02 99.4365 1038.63 99.222 1038.24 99.0074C1037.85 98.7929 1037.47 98.5784 1037.08 98.3638L1033.21 105.367C1033.6 105.582 1033.99 105.796 1034.38 106.011C1034.76 106.225 1035.15 106.44 1035.54 106.654L1039.41 99.651ZM1038.82 100.285C1025.87 70.1893 991.702 55.8172 946.335 55.8172V63.8172C990.581 63.8172 1020.44 77.8101 1031.47 103.446L1038.82 100.285ZM946.335 55.8172H942.709V63.8172H946.335V55.8172ZM944.095 56.0653C913.177 44.6392 880.415 34.8108 846.015 26.6704L844.172 34.4554C878.277 42.5259 910.728 52.2627 941.322 63.5692L944.095 56.0653ZM846.015 26.6705C771.222 8.96388 691.815 0 610.014 0V8C691.235 8 770.021 16.9008 844.172 34.4553L846.015 26.6705ZM610.014 0C528.213 0 448.815 8.96389 374.022 26.6626L375.865 34.4476C450.016 16.9007 528.793 8 610.014 8V0ZM374.023 26.6626C333.092 36.3462 294.498 48.4092 258.55 62.7323L261.511 70.1641C297.066 55.9974 335.284 44.0485 375.865 34.4477L374.023 26.6626ZM264.031 66.4482V59.8094H256.031V66.4482H264.031ZM260.031 55.8094H148.198V63.8094H260.031V55.8094ZM144.198 59.8094V67.1425H152.198V59.8094H144.198ZM148.198 71.1425C158.097 71.1425 165.544 71.4493 171.174 72.2042C176.848 72.9651 180.275 74.1349 182.422 75.5741C186.225 78.1223 187.276 82.3714 187.276 93.3388H195.276C195.276 83.0012 194.671 74.1522 186.876 68.9284C183.225 66.4817 178.367 65.0972 172.237 64.2752C166.062 63.4472 158.183 63.1425 148.198 63.1425V71.1425ZM187.276 93.3388V98.3627H195.276V93.3388H187.276ZM189.382 94.8393C186.431 96.4253 183.509 98.0264 180.607 99.6423L184.499 106.632C187.369 105.034 190.256 103.452 193.169 101.886L189.382 94.8393ZM180.6 99.6463C124.413 131.085 80.0731 167.845 48.9649 208.989L55.3462 213.814C85.6395 173.748 129.045 137.661 184.506 106.628L180.6 99.6463ZM48.9641 208.99C16.5686 251.862 0 297.634 0 344.996H8C8 299.618 23.8434 255.505 55.3469 213.813L48.9641 208.99ZM0 344.996C0 392.358 16.5684 438.138 48.9646 480.995L55.3464 476.171C23.8436 434.495 8 390.374 8 344.996H0ZM48.9646 480.995C79.5297 521.428 122.881 557.624 177.694 588.697L181.639 581.737C127.543 551.071 85.1098 515.544 55.3464 476.171L48.9646 480.995ZM175.667 585.217V606.163H183.667V585.217H175.667ZM175.667 606.163C175.667 617.13 174.616 621.379 170.814 623.928C168.666 625.367 165.24 626.537 159.565 627.298C153.935 628.052 146.488 628.359 136.59 628.359V636.359C146.574 636.359 154.453 636.055 160.628 635.227C166.759 634.405 171.616 633.02 175.267 630.573C183.062 625.35 183.667 616.501 183.667 606.163H175.667ZM132.59 632.359V639.692H140.59V632.359H132.59ZM136.59 643.692H236.823V635.692H136.59V643.692ZM240.823 639.692V632.008H232.823V639.692H240.823ZM236.787 628.008C226.889 628.096 219.443 627.853 213.815 627.145C208.14 626.432 204.72 625.29 202.581 623.872C198.801 621.367 197.745 617.142 197.745 606.163H189.745C189.745 616.489 190.345 625.362 198.162 630.541C201.822 632.966 206.686 634.312 212.817 635.083C218.993 635.859 226.873 636.096 236.858 636.008L236.787 628.008ZM197.745 606.149L197.699 592.918L189.699 592.946L189.745 606.177L197.745 606.149ZM191.82 596.463C222.749 612.922 256.299 627.373 292.175 639.737L294.782 632.174C259.267 619.934 226.106 605.645 195.578 589.401L191.82 596.463ZM289.758 637.423L294.401 649.202L301.844 646.268L297.2 634.489L289.758 637.423ZM298.122 651.735H310.545V643.735H298.122V651.735ZM314.258 649.224L316.432 643.802L309.006 640.825L306.832 646.247L314.258 649.224ZM311.512 646.127C331.673 652.508 352.516 658.253 374.004 663.337L375.846 655.552C354.544 650.511 333.891 644.819 313.926 638.5L311.512 646.127ZM374.004 663.337C448.797 681.036 528.194 690 609.995 690V682C528.774 682 449.997 673.099 375.846 655.552L374.004 663.337ZM609.995 690C691.796 690 771.203 681.036 845.987 663.337L844.144 655.552C770.003 673.099 691.216 682 609.995 682V690ZM845.987 663.337C870.392 657.563 893.959 650.941 916.631 643.501L914.137 635.9C891.688 643.266 868.339 649.828 844.145 655.552L845.987 663.337ZM915.384 643.7H965.362V635.7H915.384V643.7ZM969.362 639.7V632.367H961.362V639.7H969.362ZM965.362 628.367C954.588 628.367 946.733 627.998 940.968 627.097L939.732 635.001C946.14 636.003 954.509 636.367 965.362 636.367V628.367ZM941.724 634.805C964.683 626.406 986.638 617.117 1007.51 606.976L1004.02 599.78C983.398 609.797 961.693 618.981 938.976 627.292L941.724 634.805ZM1002.34 605.449L1011.64 620.81L1018.48 616.667L1009.19 601.307L1002.34 605.449ZM1011.57 620.697C1017.19 630.694 1021.81 636.89 1028.23 640.232C1034.53 643.517 1041.99 643.7 1051.92 643.7V635.7C1041.56 635.7 1036.18 635.357 1031.92 633.138C1027.78 630.976 1024.12 626.692 1018.55 616.779L1011.57 620.697ZM1051.92 643.7H1083.4V635.7H1051.92V643.7ZM1087.4 639.7V632.367H1079.4V639.7H1087.4ZM1083.4 628.367C1071.42 628.367 1063.82 627.55 1057.86 624.768C1052.06 622.062 1047.29 617.24 1041.68 607.942L1034.83 612.076C1040.81 621.992 1046.61 628.35 1054.48 632.018C1062.18 635.612 1071.36 636.367 1083.4 636.367V628.367ZM1041.68 607.943L1030.98 590.196L1024.12 594.327L1034.83 612.075L1041.68 607.943ZM1029.43 595.79C1032.79 594 1036.11 592.184 1039.41 590.335L1035.49 583.359C1032.25 585.177 1028.97 586.966 1025.67 588.733L1029.43 595.79ZM1039.4 590.338C1095.6 558.899 1139.93 522.139 1171.04 480.995L1164.65 476.171C1134.36 516.237 1090.96 552.324 1035.49 583.357L1039.4 590.338ZM1171.04 480.995C1203.44 438.137 1220 392.358 1220 344.996H1212C1212 390.374 1196.17 434.495 1164.65 476.171L1171.04 480.995ZM1220 344.996C1220 297.634 1203.43 251.855 1171.04 208.997L1164.65 213.821C1196.16 255.497 1212 299.618 1212 344.996H1220ZM1166.76 215.26L1166.79 215.268L1168.95 207.566L1168.93 207.558L1166.76 215.26ZM1009.43 128.631C1009.43 141.229 1006.06 150.947 1000.66 158.511C995.232 166.114 987.596 171.77 978.753 175.925C960.971 184.281 938.9 186.285 922.354 186.112L922.271 194.112C939.275 194.29 962.765 192.277 982.156 183.166C991.9 178.587 1000.75 172.148 1007.17 163.158C1013.61 154.129 1017.43 142.756 1017.43 128.631H1009.43ZM922.312 186.112H910.297V194.112H922.312V186.112ZM914.297 190.112V77.9783H906.297V190.112H914.297ZM911.98 81.6067C918.625 78.5237 928.863 76.2905 940.902 75.7964L940.574 67.8032C927.898 68.3233 916.528 70.6772 908.613 74.3499L911.98 81.6067ZM939.332 75.5443C962.36 84.1956 984.217 93.7272 1004.76 104.044L1008.35 96.8945C987.54 86.4442 965.423 76.8005 942.145 68.0553L939.332 75.5443ZM1003.07 102.438C1007.12 109.591 1009.43 118.284 1009.43 128.631H1017.43C1017.43 117.057 1014.83 106.98 1010.03 98.4997L1003.07 102.438ZM256.791 63.4387C242.618 69.133 228.848 75.1746 215.52 81.564L218.979 88.7779C232.143 82.4671 245.753 76.4949 259.774 70.862L256.791 63.4387ZM221.231 85.5553C221.548 82.2702 222.163 80.0337 223.113 78.4031C224.004 76.8742 225.351 75.5994 227.709 74.5344C232.824 72.2243 241.875 71.2132 258.298 71.1503L258.267 63.1503C242.111 63.2122 231.331 64.1202 224.416 67.2436C220.759 68.8954 218.042 71.216 216.201 74.3761C214.419 77.4344 213.635 80.9805 213.268 84.7867L221.231 85.5553ZM197.653 579.094L196.922 383.979L188.922 384.009L189.653 579.124L197.653 579.094ZM192.922 387.994H194.162V379.994H192.922V387.994ZM190.44 385.461L283.986 622.764L291.428 619.83L197.883 382.527L190.44 385.461ZM289.069 617.536C255.345 605.321 224.021 591.254 195.581 575.604L191.724 582.613C220.56 598.48 252.266 612.715 286.345 625.058L289.069 617.536ZM610.014 670.454C503.939 670.454 404.366 654.806 318.361 627.478L315.938 635.103C402.779 662.695 503.173 678.454 610.014 678.454V670.454ZM320.862 632.781L421.539 381.989L414.115 379.009L313.438 629.8L320.862 632.781ZM417.827 384.499H419.066V376.499H417.827V384.499ZM415.066 380.499V606.155H423.066V380.499H415.066ZM415.066 606.155C415.066 617.058 413.932 621.334 410.032 623.902C407.823 625.356 404.331 626.528 398.616 627.289C392.945 628.045 385.47 628.352 375.573 628.352V636.352C385.558 636.352 393.461 636.047 399.673 635.219C405.841 634.398 410.737 633.015 414.431 630.584C422.337 625.379 423.066 616.557 423.066 606.155H415.066ZM371.573 632.352V639.685H379.573V632.352H371.573ZM375.573 643.685H651.01V635.685H375.573V643.685ZM654.925 640.505L655.757 636.535L647.927 634.893L647.095 638.864L654.925 640.505ZM647.842 635.714V639.685H655.842V635.714H647.842ZM651.842 643.685H874.703V635.685H651.842V643.685ZM873.628 635.832C794.288 657.962 704.741 670.446 610.014 670.446V678.446C705.43 678.446 795.703 665.873 875.777 643.537L873.628 635.832ZM606.014 674.446V674.454H614.014V674.446H606.014ZM498.034 419.775C498.447 408.993 499.112 400.837 500.232 394.637C501.357 388.408 502.881 384.526 504.752 382.015C508.222 377.357 513.872 376.113 526.755 376.113V368.113C514.376 368.113 504.495 368.968 498.336 377.236C495.392 381.188 493.577 386.476 492.359 393.215C491.137 399.984 490.456 408.594 490.04 419.469L498.034 419.775ZM526.755 376.113H624.916V368.113H526.755V376.113ZM621.474 370.075L467.646 629.885L474.53 633.96L628.358 374.151L621.474 370.075ZM471.348 627.931C459.254 627.145 454.103 625.177 451.61 622.456C449.132 619.751 448.328 615.313 448.328 606.155H440.328C440.328 614.885 440.842 622.547 445.712 627.861C450.569 633.161 458.798 635.132 470.829 635.914L471.348 627.931ZM448.328 606.155V393.784H440.328V606.155H448.328ZM448.328 393.784C448.328 382.914 449.457 378.623 453.281 376.056C455.435 374.61 458.843 373.438 464.433 372.671C469.983 371.911 477.3 371.596 486.992 371.588L486.986 363.588C477.202 363.596 469.448 363.909 463.347 364.745C457.287 365.576 452.464 366.969 448.822 369.414C441.053 374.629 440.328 383.421 440.328 393.784H448.328ZM482.992 367.428L480.92 419.126L488.914 419.447L490.986 367.748L482.992 367.428ZM484.763 423.284L493.874 423.635L494.182 415.64L485.071 415.289L484.763 423.284ZM497.468 421.678L497.478 421.663L490.597 417.581L490.588 417.597L497.468 421.678ZM656.981 371.604C665.635 371.714 672.113 372.131 676.987 372.963C681.885 373.799 684.793 374.996 686.607 376.394C689.952 378.974 690.92 383.285 690.92 393.769H698.92C698.92 383.915 698.375 375.366 691.492 370.059C688.191 367.514 683.806 366.011 678.332 365.077C672.834 364.139 665.86 363.716 657.083 363.604L656.981 371.604ZM690.92 393.769V606.147H698.92V393.769H690.92ZM690.92 606.147C690.92 617.056 689.877 621.314 686.134 623.865C684.029 625.3 680.67 626.474 675.094 627.245C669.561 628.01 662.24 628.33 652.503 628.344L652.514 636.344C662.341 636.33 670.103 636.011 676.19 635.169C682.235 634.334 687.032 632.935 690.64 630.476C698.32 625.24 698.92 616.427 698.92 606.147H690.92ZM656.442 633.067L668.199 569.145L660.331 567.698L648.574 631.62L656.442 633.067ZM664.743 564.45L656.048 563.404L655.093 571.347L663.788 572.393L664.743 564.45ZM651.635 566.658C649.156 580.244 646.907 590.666 644.554 598.679C642.192 606.722 639.8 612.062 637.17 615.665C634.633 619.139 631.821 621.075 628.299 622.221C624.603 623.423 619.985 623.803 613.742 623.803V631.803C620.129 631.803 625.812 631.442 630.774 629.828C635.909 628.158 640.111 625.204 643.631 620.382C647.057 615.69 649.764 609.329 652.23 600.933C654.704 592.507 657.013 581.753 659.505 568.094L651.635 566.658ZM613.742 623.803H503.981V631.803H613.742V623.803ZM507.429 629.831L660.489 369.624L653.593 365.568L500.533 625.775L507.429 629.831ZM654.465 364.536L654.456 364.544L659.607 370.664L659.617 370.656L654.465 364.536ZM928.751 621.532C926.875 618.71 926.312 614.283 926.312 606.147H918.312C918.312 613.926 918.675 620.827 922.09 625.962L928.751 621.532ZM926.312 606.147V502.4H918.312V606.147H926.312ZM922.312 506.4H944.679V498.4H922.312V506.4ZM941.257 504.471L996.091 595.066L1002.93 590.923L948.101 500.329L941.257 504.471ZM997.763 589.398C974.73 600.607 950.1 610.831 924.094 619.973L926.747 627.52C953.021 618.284 977.935 607.944 1001.26 596.591L997.763 589.398ZM926.312 490.527V378.401H918.312V490.527H926.312ZM923.996 382.029C931.581 378.51 943.789 376.113 957.934 376.113V368.113C943.09 368.113 929.62 370.6 920.629 374.772L923.996 382.029ZM957.934 376.113C976.584 376.113 992.498 380.77 1003.66 389.576C1014.7 398.285 1021.45 411.329 1021.45 429.053H1029.45C1029.45 409.052 1021.7 393.625 1008.61 383.296C995.645 373.063 977.801 368.113 957.934 368.113V376.113ZM1021.45 429.053C1021.45 441.651 1018.07 451.369 1012.67 458.933C1007.25 466.536 999.612 472.193 990.769 476.347C972.986 484.703 950.915 486.708 934.37 486.535L934.286 494.534C951.291 494.712 974.781 492.699 994.171 483.588C1003.92 479.009 1012.77 472.57 1019.19 463.58C1025.63 454.551 1029.45 443.178 1029.45 429.053H1021.45ZM934.328 486.534H922.312V494.534H934.328V486.534ZM926.312 490.534V490.527H918.312V490.534H926.312ZM1024.73 579.788L993.66 528.285L986.81 532.418L1017.88 583.921L1024.73 579.788ZM993.697 528.347C984.657 512.734 973.252 502.915 962.27 498.676L959.389 506.139C968.294 509.577 978.424 517.934 986.774 532.356L993.697 528.347ZM964.83 502.408V501.362H956.83V502.408H964.83ZM960.83 497.362H960.413V505.362H960.83V497.362ZM960.762 505.347C982.933 503.405 1006.67 498.527 1024.97 487.114C1043.53 475.535 1056.37 457.28 1056.37 429.405H1048.37C1048.37 454.273 1037.17 470.073 1020.74 480.326C1004.03 490.744 981.794 495.474 960.064 497.378L960.762 505.347ZM1056.37 429.405C1056.37 405.307 1046.69 386.765 1029.26 374.399C1012.03 362.17 987.592 356.24 958.35 356.24V364.24C986.681 364.24 1009.25 370.011 1024.63 380.924C1039.82 391.7 1048.37 407.741 1048.37 429.405H1056.37ZM958.35 356.24H853.557V364.24H958.35V356.24ZM849.557 360.24V367.573H857.557V360.24H849.557ZM853.557 371.573C863.455 371.573 870.902 371.879 876.533 372.634C882.207 373.395 885.634 374.565 887.781 376.004C891.584 378.552 892.634 382.802 892.634 393.769H900.634C900.634 383.431 900.03 374.582 892.235 369.359C888.584 366.912 883.726 365.527 877.596 364.705C871.421 363.877 863.542 363.573 853.557 363.573V371.573ZM892.634 393.769V606.147H900.634V393.769H892.634ZM892.634 606.147C892.634 616.894 891.62 621.173 888.039 623.734C886.052 625.155 882.873 626.339 877.567 627.136C872.296 627.928 865.31 628.286 856.005 628.336L856.049 636.336C865.456 636.285 872.903 635.926 878.755 635.048C884.571 634.174 889.205 632.736 892.692 630.242C900.057 624.975 900.634 616.261 900.634 606.147H892.634ZM859.873 633.435L878.937 566.727L871.245 564.529L852.181 631.237L859.873 633.435ZM875.879 561.707L867.184 559.959L865.608 567.802L874.303 569.55L875.879 561.707ZM862.546 562.795C858.518 577.082 855.065 588.092 851.77 596.589C848.466 605.111 845.405 610.879 842.252 614.828C839.178 618.678 835.999 620.824 832.269 622.08C828.401 623.383 823.731 623.803 817.519 623.803V631.803C823.943 631.803 829.681 631.394 834.823 629.662C840.104 627.883 844.536 624.789 848.504 619.819C852.393 614.948 855.803 608.316 859.229 599.481C862.664 590.623 866.199 579.321 870.246 564.966L862.546 562.795ZM817.519 623.803H742.141V631.803H817.519V623.803ZM742.141 623.803C737.768 623.803 734.528 623.584 732.088 623.07C729.686 622.565 728.339 621.831 727.479 620.999C726.629 620.176 725.887 618.9 725.37 616.606C724.841 614.26 724.607 611.12 724.607 606.842H716.607C716.607 611.296 716.839 615.143 717.566 618.366C718.304 621.64 719.606 624.512 721.914 626.746C724.212 628.971 727.135 630.203 730.44 630.899C733.707 631.586 737.611 631.803 742.141 631.803V623.803ZM724.607 606.842V393.784H716.607V606.842H724.607ZM724.607 393.784C724.607 382.817 725.658 378.568 729.46 376.02C731.608 374.581 735.034 373.411 740.709 372.65C746.339 371.895 753.786 371.588 763.684 371.588V363.588C753.7 363.588 745.82 363.893 739.646 364.721C733.515 365.543 728.658 366.927 725.007 369.374C717.212 374.598 716.607 383.447 716.607 393.784H724.607ZM767.684 367.588V360.255H759.684V367.588H767.684ZM763.684 356.255H487.414V364.255H763.684V356.255ZM487.414 356.255H411.204V364.255H487.414V356.255ZM407.495 358.756L308.502 603.626L315.919 606.625L414.912 361.754L407.495 358.756ZM312.21 601.125H310.971V609.125H312.21V601.125ZM314.688 603.648L217.35 358.778L209.916 361.733L307.253 606.603L314.688 603.648ZM213.633 356.255H136.59V364.255H213.633V356.255ZM132.59 360.255V367.588H140.59V360.255H132.59ZM136.59 371.588C146.488 371.588 153.935 371.895 159.565 372.65C165.24 373.411 168.666 374.581 170.814 376.02C174.616 378.568 175.667 382.817 175.667 393.784H183.667C183.667 383.447 183.062 374.598 175.267 369.374C171.616 366.927 166.759 365.543 160.628 364.721C154.453 363.893 146.574 363.588 136.59 363.588V371.588ZM175.667 393.784V571.159H183.667V393.784H175.667ZM181.695 567.712C81.9049 508.994 21.6808 430.442 21.6808 344.996H13.6808C13.6808 434.514 76.7036 515.215 177.638 574.607L181.695 567.712ZM21.6808 344.996C21.6808 259.602 86.6051 175.015 193.221 115.689L189.331 108.699C81.5309 168.684 13.6808 255.426 13.6808 344.996H21.6808ZM187.276 112.194V305.725H195.276V112.194H187.276ZM187.276 305.725C187.276 316.692 186.225 320.942 182.422 323.49C180.275 324.929 176.848 326.099 171.174 326.86C165.544 327.615 158.097 327.921 148.198 327.921V335.921C158.183 335.921 166.062 335.617 172.237 334.789C178.367 333.967 183.225 332.582 186.876 330.135C194.671 324.912 195.276 316.063 195.276 305.725H187.276ZM144.198 331.921V339.254H152.198V331.921H144.198ZM148.198 343.254H260.031V335.254H148.198V343.254ZM264.031 339.254V331.921H256.031V339.254H264.031ZM260.031 327.921C250.133 327.921 242.686 327.615 237.055 326.86C231.381 326.099 227.954 324.929 225.807 323.49C222.004 320.942 220.954 316.692 220.954 305.725H212.954C212.954 316.063 213.558 324.912 221.353 330.135C225.004 332.582 229.862 333.967 235.992 334.789C242.167 335.617 250.046 335.921 260.031 335.921V327.921ZM220.954 305.725V98.7294H212.954V305.725H220.954ZM218.726 102.315C322.741 50.8976 459.851 19.5379 610.014 19.5379V11.5379C458.812 11.5379 320.457 43.1023 215.181 95.1436L218.726 102.315ZM610.014 19.5379C717.518 19.5379 818.333 35.6141 905.128 63.6239L907.585 56.0106C819.943 27.7273 718.294 11.5379 610.014 11.5379V19.5379ZM906.356 55.8172H841.541V63.8172H906.356V55.8172ZM837.541 59.8172V67.1503H845.541V59.8172H837.541ZM841.541 71.1503C851.44 71.1503 858.887 71.4571 864.517 72.212C870.191 72.9729 873.618 74.1427 875.765 75.5819C879.568 78.1301 880.619 82.3792 880.619 93.3466H888.619C888.619 83.009 888.014 74.1599 880.219 68.9362C876.568 66.4895 871.711 65.105 865.58 64.283C859.405 63.455 851.526 63.1503 841.541 63.1503V71.1503ZM880.619 93.3466V305.725H888.619V93.3466H880.619ZM880.619 305.725C880.619 316.692 879.568 320.942 875.765 323.49C873.618 324.929 870.191 326.099 864.517 326.86C858.887 327.615 851.44 327.921 841.541 327.921V335.921C851.526 335.921 859.405 335.617 865.58 334.789C871.711 333.967 876.568 332.582 880.219 330.135C888.014 324.912 888.619 316.063 888.619 305.725H880.619ZM837.541 331.921V339.254H845.541V331.921H837.541ZM841.541 343.254H953.374V335.254H841.541V343.254ZM957.374 339.254V331.921H949.374V339.254H957.374ZM953.374 327.921C943.476 327.921 936.029 327.615 930.398 326.86C924.724 326.099 921.298 324.929 919.15 323.49C915.348 320.942 914.297 316.692 914.297 305.725H906.297C906.297 316.063 906.902 324.912 914.696 330.135C918.347 332.582 923.205 333.967 929.335 334.789C935.51 335.617 943.389 335.921 953.374 335.921V327.921ZM914.297 305.725V201.985H906.297V305.725H914.297ZM910.297 205.985H932.663V197.985H910.297V205.985ZM929.241 204.057L999.652 320.38L1006.5 316.237L936.085 199.914L929.241 204.057ZM999.587 320.267C1005.2 330.264 1009.83 336.46 1016.24 339.802C1022.54 343.087 1030 343.27 1039.94 343.27V335.27C1029.57 335.27 1024.2 334.927 1019.94 332.708C1015.79 330.546 1012.13 326.262 1006.56 316.349L999.587 320.267ZM1039.94 343.27H1071.41V335.27H1039.94V343.27ZM1075.41 339.27V331.937H1067.41V339.27H1075.41ZM1071.41 327.937C1059.43 327.937 1051.84 327.12 1045.87 324.338C1040.07 321.632 1035.3 316.81 1029.69 307.512L1022.84 311.646C1028.83 321.562 1034.62 327.919 1042.49 331.588C1050.19 335.182 1059.37 335.937 1071.41 335.937V327.937ZM1029.69 307.513L981.644 227.871L974.794 232.003L1022.84 311.645L1029.69 307.513ZM981.681 227.933C972.641 212.32 961.236 202.501 950.254 198.262L947.373 205.725C956.278 209.162 966.408 217.52 974.758 231.941L981.681 227.933ZM952.814 201.993V200.948H944.814V201.993H952.814ZM948.814 196.948H948.397V204.948H948.814V196.948ZM948.747 204.933C970.917 202.99 994.655 198.113 1012.95 186.699C1031.52 175.121 1044.35 156.866 1044.35 128.99H1036.35C1036.35 153.858 1025.16 169.659 1008.72 179.912C992.017 190.33 969.778 195.059 948.048 196.963L948.747 204.933ZM1044.35 128.99C1044.35 125.156 1044.1 121.459 1043.62 117.91L1035.69 118.976C1036.12 122.167 1036.35 125.507 1036.35 128.99H1044.35ZM1037.63 121.893C1137.84 180.652 1198.35 259.368 1198.35 345.012H1206.35C1206.35 255.286 1143.03 174.421 1041.68 114.992L1037.63 121.893ZM1198.35 345.012C1198.35 435.739 1130.43 518.706 1019.41 578.354L1023.2 585.402C1135.31 525.162 1206.35 440.061 1206.35 345.012H1198.35ZM1025.31 581.878V581.855H1017.31V581.878H1025.31Z" fill="black" mask="url(#path-1-outside-1_272_2)"/>
</g>
</svg>
