<svg fill="none" height="124" viewBox="0 0 166 124" width="166" xmlns="http://www.w3.org/2000/svg"><path d="m1 1h164v122h-164z" fill="#d9d9d9" fill-opacity=".5" stroke="#000" stroke-width="2"/><g fill="#000"><path d="m33.0329 86.344h-5.5903l-1.9837-22.4943h-.3606l.1803 17.1011v32.0462h-15.1565v-102.9159h16.2342l3.787 29.5808h.3607l3.7912-29.5808h16.054v102.9159h-15.1523v-32.0462l.1803-17.1011h-.3606z"/><path d="m80.2029 112.997h-27.1487v-102.9159h27.2388v23.1073h-10.7341v16.4838h9.021v22.4943h-9.021v17.7186h10.644v23.1069z"/><path d="m102.663 10.0811h14.701v102.9159h-14.16l-5.23-38.361h-.3606v38.361h-14.7916v-102.9159h14.6112l4.869 38.2064h.361z"/><path d="m139.193 87.1113v-77.0302h16.685v71.4871c0 19.5658-5.951 32.3548-17.948 32.3548-11.996 0-17.947-12.789-17.947-32.3548v-71.4871h16.685v77.0302c0 2.3108.451 3.5455 1.262 3.5455.812 0 1.263-1.2303 1.263-3.5455z"/></g></svg>