<svg fill="none" height="125" viewBox="0 0 166 125" width="166" xmlns="http://www.w3.org/2000/svg" xmlns:xlink="http://www.w3.org/1999/xlink"><clipPath id="a"><path d="m10.1221 10.5845h145.756v104.256h-145.756z"/></clipPath><path d="m1 1h164v122.5h-164z" fill="#d9d9d9" fill-opacity=".5" stroke="#000" stroke-width="2"/><g clip-path="url(#a)" fill="#000"><path d="m37.646 11.5029 1.5177 47.3756h.3178l1.4341-47.3756h13.8017l-6.9406 102.4151h-13.325l-1.7561-47.376h-.3177l-1.9149 47.376h-13.4004l-6.9405-102.4151h14.1989l1.4341 47.3756h.3177l1.5219-47.3756z"/><path d="m86.7106 62.7104c0 35.8762-5.9831 52.1256-16.5152 52.1256s-16.5152-16.2494-16.5152-52.1256c0-35.8761 5.9831-52.1259 16.5152-52.1259s16.5152 16.407 16.5152 52.1259zm-16.5152-28.9781c-1.1958 0-1.1958 4.7545-1.1958 28.9781 0 24.2237 0 28.9782 1.1958 28.9782s1.1958-4.7545 1.1958-28.9782c0-24.2236 0-28.9781-1.1958-28.9781z"/><path d="m106.416 113.922c-.48-2.301-.798-6.439-.878-10.271l-.317-21.6164c0-1.8414-.239-4.7545-1.355-4.7545h-.481v36.6419h-14.759v-102.4191h17.071c10.691 0 15.236 11.3463 15.236 30.2031 0 12.418-3.111 21.0043-6.861 23.7643v.3062c2.475 1.6883 5.184 5.9794 5.427 14.1064l.799 23.7641c.079 3.526.397 7.051 1.036 10.271h-14.918zm-2.391-79.7265h-.64v22.2292h.64c1.597 0 1.756-3.2193 1.756-11.0401 0-8.2801-.238-11.1932-1.756-11.1932z"/><path d="m140.797 113.922-2.952-39.8613h-.56v39.8613h-14.759v-102.4191h14.759v38.33h.481l2.391-38.33h15.479l-4.549 50.1356 4.787 52.2835z"/></g></svg>