<svg fill="none" height="125" viewBox="0 0 166 125" width="166" xmlns="http://www.w3.org/2000/svg" xmlns:xlink="http://www.w3.org/1999/xlink"><clipPath id="a"><path d="m10.1221 10.1221h145.756v104.256h-145.756z"/></clipPath><path d="m1 1h164v122.5h-164z" fill="#d9d9d9" fill-opacity=".5" stroke="#000" stroke-width="2"/><g clip-path="url(#a)" fill="#1d1d1b"><path d="m19.1525 84.1753c0 3.6783-.7787 5.2116-2.4282 5.2116-1.3606 0-2.0388-.7646-3.3995-2.9137l-3.2027 22.5408c2.2314 2.914 6.0203 5.364 10.68 5.364 10.098 0 16.2188-8.125 16.2188-27.599v-75.7351h-17.8684z"/><path d="m59.3562 10.1221c-12.8194 0-20.0999 16.4034-20.0999 52.128 0 35.7247 7.2847 52.1279 20.0999 52.1279 12.8151 0 20.0998-16.2503 20.0998-52.1279 0-35.8775-7.2847-52.128-20.0998-52.128zm0 81.1037c-1.457 0-1.457-4.7529-1.457-28.9757s0-28.9756 1.457-28.9756c1.4569 0 1.4569 4.7528 1.4569 28.9756s0 28.9757-1.4569 28.9757z"/><path d="m109.947 61.4858v-.3059c5.049-2.7607 7.77-10.2702 7.77-22.9994 0-17.3251-5.827-27.1366-18.1568-27.1366h-17.7721v102.4131h16.2188c14.1761 0 20.6821-9.965 20.6821-28.67 0-12.2664-2.621-19.78-8.742-23.3054zm-11.4586-27.7523h.6782c1.5534 0 1.8464 2.9137 1.8464 8.584 0 5.9802-.193 9.1998-1.7501 9.1998h-.7787v-17.7838zm.7787 57.1867h-.7787v-18.5525h.6782c1.7504 0 1.9424 3.2195 1.9424 8.8939 0 5.9803-.096 9.6586-1.8461 9.6586z"/><path d="m137.139 36.0311c0-2.2979.678-3.6783 1.65-3.6783 1.649 0 2.331 5.2116 2.135 12.7252l14.565-4.1412c.389-18.7054-5.535-30.8147-16.897-30.8147-11.363 0-18.744 12.5722-18.744 29.7443 0 25.2974 18.643 34.9559 18.643 48.7556 0 1.6863-.485 3.2196-1.649 3.2196-1.65 0-2.818-5.2116-2.428-13.9527l-14.859 4.9058c-.582 18.7053 6.603 31.5833 17.869 31.5833s18.45-11.803 18.45-28.8226c0-26.9835-18.743-38.0225-18.743-49.5202z"/></g></svg>