<svg width="329" height="246" viewBox="0 0 329 246" fill="none" xmlns="http://www.w3.org/2000/svg">
<rect x="2.10303" y="2" width="324" height="242" fill="#D9D9D9" fill-opacity="0.5" stroke="black" stroke-width="4"/>
<path d="M52.0516 20C62.3825 20 67.3578 33.7303 69.7477 33.7303C70.9916 33.7303 71.5672 32.259 71.5672 22.4479H73.767L75.201 89.8884H73.0012C71.377 47.9554 64.3921 30.052 54.1589 30.052C39.8139 30.052 31.873 70.5137 31.873 123C31.873 175.486 39.8139 213.982 53.8711 213.982C65.8261 213.982 74.3375 186.762 76.635 141.88H78.9324C76.3523 190.929 68.0311 226 51.5788 226C32.3459 226 20.103 182.348 20.103 123C20.103 63.6518 32.8239 20 52.0516 20Z" fill="black"/>
<path d="M111.256 30.7877C102.359 30.7877 101.023 35.2017 101.023 50.1624V194.607C101.023 208.585 102.169 211.039 106.954 211.039H121.397C127.231 211.039 129.621 203.93 133.542 164.686L135.742 166.157L130.864 215.206L130.289 221.091H80.0735V215.206C88.9704 215.206 90.3067 210.792 90.3067 195.831V50.1624C90.3067 35.2017 88.9704 30.7877 80.0735 30.7877V24.9023H111.256V30.7877Z" fill="black"/>
<path d="M139.088 123C139.088 66.3536 150.185 20 169.217 20C188.249 20 199.346 66.3536 199.346 123C199.346 179.646 188.347 226 169.217 226C150.087 226 139.088 179.646 139.088 123ZM187.489 118.833C185.387 57.0308 177.065 26.8684 166.061 29.3228C154.965 32.0181 148.751 65.1296 150.853 127.173C153.053 188.976 161.184 218.891 172.373 216.443C183.47 213.748 189.591 180.883 187.484 118.84L187.489 118.833Z" fill="black"/>
<path d="M205.375 151.45H207.673C208.053 191.176 216.76 215.948 227.09 215.948C234.836 215.948 239.714 203.442 239.714 184.803C239.714 162.733 230.724 146.053 221.159 125.454C210.35 101.666 205.283 89.4067 205.283 63.6518C205.283 35.449 213.701 20 224.125 20C234.548 20 238.758 36.9204 241.055 36.9204C242.109 36.9204 242.489 34.7134 242.489 23.9257H244.787V81.5552H242.489C242.109 51.3928 235.222 30.052 225.179 30.052C217.238 30.052 213.794 42.07 213.794 55.0647C213.794 73.4564 220.969 85.9627 228.046 101.659C240.577 129.374 248.23 143.104 248.23 176.209C248.23 209.314 238.187 225.993 228.242 225.993C216.189 225.993 212.458 208.09 209.687 208.09C208.156 208.09 207.678 211.768 207.678 222.068H205.38V151.437L205.375 151.45Z" fill="black"/>
<path d="M302.074 31.5234L303.894 71.0085L301.596 71.7442C300.162 40.3514 298.152 34.9608 292.319 34.9608H271.847V112.948H284.378C290.212 112.948 291.933 109.517 291.933 84.2571H294.231V151.945H291.933C291.933 126.685 290.212 123.254 284.378 123.254H271.847V197.068C271.847 208.591 272.613 211.046 276.345 211.046H293.563C299.396 211.046 301.884 203.937 305.903 166.906L308.103 168.377L303.035 214.972L302.367 221.104H250.908V215.219C259.805 215.219 261.141 210.805 261.141 195.844V50.1624C261.141 35.2017 259.805 30.7877 250.908 30.7877V24.9023H301.791L302.079 31.5234H302.074Z" fill="black"/>
</svg>
