<svg fill="none" height="125" viewBox="0 0 166 125" width="166" xmlns="http://www.w3.org/2000/svg" xmlns:xlink="http://www.w3.org/1999/xlink"><clipPath id="a"><path d="m10.1221 11.0869h145.756v104.256h-145.756z"/></clipPath><path d="m1 1.5h164v122.5h-164z" fill="#d9d9d9" fill-opacity=".5" stroke="#000" stroke-width="2"/><g clip-path="url(#a)" fill="#000"><path d="m30.1852 12.0088v102.4132h-20.0631v-102.4132z"/><path d="m57.2954 12.0088h17.6788v102.4132h-17.0273l-6.2889-38.1758h-.4343v38.1758h-17.7852v-102.4132h17.568l5.8546 38.0225h.4343z"/><path d="m78.2271 114.422v-102.4132h30.9079v22.9954h-11.2791v18.3995h10.1931v22.0779h-10.1931v38.9444h-19.6288z"/><path d="m155.878 63.215c0 35.8775-8.132 52.128-22.447 52.128-14.316 0-22.448-16.2505-22.448-52.128 0-35.8776 8.128-52.1281 22.443-52.1281s22.448 16.4034 22.448 52.1281zm-22.447-28.9757c-1.627 0-1.627 4.7528-1.627 28.9757 0 24.2228 0 28.9756 1.627 28.9756 1.626 0 1.626-4.7528 1.626-28.9756 0-24.2229 0-28.9757-1.626-28.9757z"/></g></svg>