<svg fill="none" height="125" viewBox="0 0 166 125" width="166" xmlns="http://www.w3.org/2000/svg" xmlns:xlink="http://www.w3.org/1999/xlink"><clipPath id="a"><path d="m10.1221 10.1221h145.756v104.256h-145.756z"/></clipPath><path d="m1 1h164v122.5h-164z" fill="#d9d9d9" fill-opacity=".5" stroke="#000" stroke-width="2"/><g clip-path="url(#a)"><path d="m37.9476 61.4825c6.0449 3.5256 8.6349 11.0401 8.6349 23.3051 0 18.7034-6.4271 28.6724-20.438 28.6724h-16.0224v-102.4193h17.5613c12.1853 0 17.9436 9.8111 17.9436 27.1368 0 12.7242-2.6855 20.2388-7.6794 22.9988zm-11.3253-9.9642h.7694c1.5339 0 1.725-3.2193 1.725-9.1987s-.2867-8.5863-1.8205-8.5863h-.6739zm0 39.4017h.7694c1.725 0 1.8256-3.6786 1.8256-9.658s-.1911-8.8925-1.9211-8.8925h-.6739zm39.7293-79.8793v79.42h10.0781v22.9993h-27.8256v-102.4193h17.7525zm49.9934 51.2074c0 35.8761-7.196 52.1259-19.8646 52.1259-12.6681 0-19.8646-16.2498-19.8646-52.1259 0-35.8762 7.2015-52.126 19.8646-52.126 12.6626 0 19.8646 16.407 19.8646 52.126zm-19.8646-28.9782c-1.4383 0-1.4383 4.7545-1.4383 28.9782 0 24.2236 0 28.9781 1.4383 28.9781s1.4383-4.7545 1.4383-28.9781c0-24.2237 0-28.9782-1.4383-28.9782zm59.3976 23.6112v56.5789h-11.325l-1.725-8.434c-1.725 5.98-4.511 9.352-9.022 9.352-10.078 0-15.736-19.4731-15.736-50.5948.005-37.101 8.253-53.6611 20.347-53.6611 10.843 0 17.275 12.1118 17.275 35.8761l-16.696 4.138c.286-12.418.095-15.178-1.056-15.178-1.248 0-1.534 6.7448-1.534 28.825 0 19.0099.382 25.912 1.825 25.912.77 0 1.534-1.0717 1.534-8.4332v-2.9131h-1.534v-21.4637h17.657z" fill="#000"/></g></svg>